<svg id="OBJECTS" xmlns="http://www.w3.org/2000/svg" xmlns:xlink="http://www.w3.org/1999/xlink" viewBox="0 0 48.1 54.49"><defs><style>.cls-1{fill:url(#linear-gradient);}.cls-2{fill:url(#linear-gradient-2);}.cls-3{fill:url(#linear-gradient-3);}.cls-4{fill:url(#linear-gradient-4);}.cls-5{fill:url(#linear-gradient-5);}.cls-6{fill:url(#linear-gradient-6);}.cls-7{fill:url(#linear-gradient-7);}.cls-8{fill:url(#linear-gradient-8);}.cls-9{fill:url(#linear-gradient-9);}.cls-10{fill:url(#linear-gradient-10);}.cls-11{fill:url(#linear-gradient-11);}.cls-12{fill:url(#linear-gradient-12);}.cls-13{fill:url(#linear-gradient-13);}.cls-14{fill:url(#linear-gradient-14);}.cls-15{fill:url(#linear-gradient-15);}.cls-16{fill:url(#linear-gradient-16);}.cls-17{fill:url(#linear-gradient-17);}.cls-18{fill:url(#linear-gradient-18);}.cls-19{fill:url(#linear-gradient-19);}.cls-20{fill:url(#linear-gradient-20);}.cls-21{fill:#96e5f9;}.cls-22{fill:url(#linear-gradient-21);}.cls-23{fill:url(#linear-gradient-22);}</style><linearGradient id="linear-gradient" x1="124.43" y1="330.7" x2="145.59" y2="359.9" gradientUnits="userSpaceOnUse"><stop offset="0" stop-color="#ff328b"/><stop offset="1" stop-color="#bc08ae"/></linearGradient><linearGradient id="linear-gradient-2" x1="130.34" y1="326.41" x2="151.5" y2="355.61" xlink:href="#linear-gradient"/><linearGradient id="linear-gradient-3" x1="159.85" y1="395.99" x2="106.34" y2="343" gradientUnits="userSpaceOnUse"><stop offset="0" stop-color="#fefe00"/><stop offset="1" stop-color="#ff43c6"/></linearGradient><linearGradient id="linear-gradient-4" x1="159.77" y1="396.07" x2="106.25" y2="343.07" xlink:href="#linear-gradient-3"/><linearGradient id="linear-gradient-5" x1="159.77" y1="396.07" x2="106.26" y2="343.07" xlink:href="#linear-gradient-3"/><linearGradient id="linear-gradient-6" x1="160.02" y1="395.82" x2="106.51" y2="342.82" xlink:href="#linear-gradient-3"/><linearGradient id="linear-gradient-7" x1="160.48" y1="395.36" x2="106.96" y2="342.36" xlink:href="#linear-gradient-3"/><linearGradient id="linear-gradient-8" x1="161.04" y1="394.79" x2="107.53" y2="341.79" xlink:href="#linear-gradient-3"/><linearGradient id="linear-gradient-9" x1="160.3" y1="395.55" x2="106.77" y2="342.54" xlink:href="#linear-gradient-3"/><linearGradient id="linear-gradient-10" x1="160.03" y1="395.81" x2="106.51" y2="342.81" xlink:href="#linear-gradient-3"/><linearGradient id="linear-gradient-11" x1="159.86" y1="395.98" x2="106.35" y2="342.99" xlink:href="#linear-gradient-3"/><linearGradient id="linear-gradient-12" x1="161.24" y1="394.57" x2="107.77" y2="341.61" xlink:href="#linear-gradient-3"/><linearGradient id="linear-gradient-13" x1="160.14" y1="395.68" x2="106.66" y2="342.72" xlink:href="#linear-gradient-3"/><linearGradient id="linear-gradient-14" x1="160.15" y1="395.69" x2="106.64" y2="342.69" xlink:href="#linear-gradient-3"/><linearGradient id="linear-gradient-15" x1="160.82" y1="395.02" x2="107.29" y2="342" xlink:href="#linear-gradient-3"/><linearGradient id="linear-gradient-16" x1="159.73" y1="396.07" x2="106.29" y2="343.14" xlink:href="#linear-gradient-3"/><linearGradient id="linear-gradient-17" x1="159.8" y1="396.04" x2="106.3" y2="343.05" xlink:href="#linear-gradient-3"/><linearGradient id="linear-gradient-18" x1="159.92" y1="395.93" x2="106.4" y2="342.92" xlink:href="#linear-gradient-3"/><linearGradient id="linear-gradient-19" x1="159.8" y1="396.04" x2="106.28" y2="343.04" xlink:href="#linear-gradient-3"/><linearGradient id="linear-gradient-20" x1="159.93" y1="395.91" x2="106.42" y2="342.91" xlink:href="#linear-gradient-3"/><linearGradient id="linear-gradient-21" x1="118.4" y1="320.96" x2="158.17" y2="383.26" gradientUnits="userSpaceOnUse"><stop offset="0" stop-color="#0062d5"/><stop offset="1" stop-color="#00ffd5"/></linearGradient><linearGradient id="linear-gradient-22" x1="127.67" y1="315.04" x2="167.44" y2="377.35" xlink:href="#linear-gradient-21"/></defs><title>18</title><path class="cls-1" d="M137.51,345.16a3.4,3.4,0,0,0-3.4,5.89l8.25,4.76V348Z" transform="translate(-121.71 -326.36)"/><path class="cls-2" d="M153.7,362.36a3.4,3.4,0,1,0,3.4-5.89l-7.94-4.58v7.85Z" transform="translate(-121.71 -326.36)"/><path class="cls-3" d="M142.82,379.15a.91.91,0,0,0,.08.13c-.06-.1-.11-.2-.16-.3C142.77,379,142.79,379.1,142.82,379.15Z" transform="translate(-121.71 -326.36)"/><path class="cls-4" d="M143.82,380.23a3.24,3.24,0,0,1-.46-.37A3.24,3.24,0,0,0,143.82,380.23Z" transform="translate(-121.71 -326.36)"/><path class="cls-5" d="M143.34,379.83a2.64,2.64,0,0,1-.34-.41A2.25,2.25,0,0,0,143.34,379.83Z" transform="translate(-121.71 -326.36)"/><path class="cls-6" d="M145,380.76a3.5,3.5,0,0,1-.55-.17A2.69,2.69,0,0,0,145,380.76Z" transform="translate(-121.71 -326.36)"/><path class="cls-7" d="M145.16,380.79a3.08,3.08,0,0,0,.61.06,3.23,3.23,0,0,0,.61-.06,3.18,3.18,0,0,1-.62.06A2.91,2.91,0,0,1,145.16,380.79Z" transform="translate(-121.71 -326.36)"/><path class="cls-8" d="M147.07,380.59a3.62,3.62,0,0,1-.56.17A3,3,0,0,0,147.07,380.59Z" transform="translate(-121.71 -326.36)"/><path class="cls-9" d="M142.42,378c0-.12,0-.24,0-.37C142.39,377.76,142.4,377.89,142.42,378Z" transform="translate(-121.71 -326.36)"/><path class="cls-10" d="M142.59,378.64c0-.1-.07-.21-.1-.31C142.52,378.43,142.55,378.54,142.59,378.64Z" transform="translate(-121.71 -326.36)"/><path class="cls-11" d="M144.38,380.55a3.21,3.21,0,0,1-.45-.24A3.21,3.21,0,0,0,144.38,380.55Z" transform="translate(-121.71 -326.36)"/><path class="cls-12" d="M147.15,380.55l-.08,0Z" transform="translate(-121.71 -326.36)"/><path class="cls-13" d="M145.16,380.79l-.15,0Z" transform="translate(-121.71 -326.36)"/><path class="cls-14" d="M142.49,378.33c0-.11-.05-.21-.07-.32C142.44,378.12,142.46,378.22,142.49,378.33Z" transform="translate(-121.71 -326.36)"/><path class="cls-15" d="M146.51,380.76l-.13,0Z" transform="translate(-121.71 -326.36)"/><path class="cls-16" d="M143.36,379.86l0,0Z" transform="translate(-121.71 -326.36)"/><path class="cls-17" d="M143,379.42l-.1-.14Z" transform="translate(-121.71 -326.36)"/><path class="cls-18" d="M144.46,380.59l-.08,0Z" transform="translate(-121.71 -326.36)"/><path class="cls-19" d="M143.93,380.31l-.11-.08Z" transform="translate(-121.71 -326.36)"/><path class="cls-20" d="M142.74,379a2.07,2.07,0,0,1-.15-.34A2.07,2.07,0,0,0,142.74,379Z" transform="translate(-121.71 -326.36)"/><polygon class="cls-21" points="27.45 25.52 20.65 21.6 20.65 29.45 27.45 33.37 27.45 25.52"/><path class="cls-22" d="M149.14,329.58a2.22,2.22,0,0,0,0-.37,3,3,0,0,0-.08-.32,2.8,2.8,0,0,0-.09-.31,3.54,3.54,0,0,0-.16-.34,1.34,1.34,0,0,0-.07-.18.71.71,0,0,1-.07-.09,3.06,3.06,0,0,0-.21-.29c-.07-.08-.13-.17-.2-.24l-.24-.23-.26-.21-.27-.17c-.1-.05-.19-.11-.29-.15s-.21-.08-.31-.12l-.32-.1-.3,0c-.12,0-.24,0-.37,0l-.11,0-.18,0-.38,0-.31.07-.32.1-.33.15-.18.08-20.65,11.92a3.41,3.41,0,0,0-1.7,2.95v23.84a3.4,3.4,0,1,0,6.8,0V343.65l13.85-8V348l6.8,3.93V329.76A1.1,1.1,0,0,0,149.14,329.58Z" transform="translate(-121.71 -326.36)"/><path class="cls-23" d="M166.41,338.29a3.4,3.4,0,0,0-3.4,3.4v21.88l-13.85,8V359.74l-6.8-3.93v21.64c0,.07,0,.13,0,.19s0,.25,0,.37,0,.21.07.32.06.21.1.31a2.07,2.07,0,0,0,.15.34c0,.1.1.2.16.3l.1.14a2.64,2.64,0,0,0,.34.41l0,0a3.24,3.24,0,0,0,.46.37l.11.08a3.21,3.21,0,0,0,.45.24l.08,0a3.5,3.5,0,0,0,.55.17l.15,0a2.91,2.91,0,0,0,.6.06,3.18,3.18,0,0,0,.62-.06l.13,0a3.62,3.62,0,0,0,.56-.17l.08,0c.1-.05.21-.09.31-.15l20.65-11.93a3.39,3.39,0,0,0,1.7-2.94V341.69A3.4,3.4,0,0,0,166.41,338.29Z" transform="translate(-121.71 -326.36)"/></svg>