<svg id="Layer_90" data-name="Layer 90" xmlns="http://www.w3.org/2000/svg" viewBox="0 0 411.75 411.75"><defs><style>.cls-1{fill:#fdba14;}.cls-2{fill:#343d50;}</style></defs><circle class="cls-1" cx="2739.46" cy="4181.6" r="205.87" transform="translate(-4688.05 -813.87) rotate(-45)"/><path class="cls-2" d="M2851.55,4120.14c-11.37-2.2-22.61,6.34-25.06,19.06a24.24,24.24,0,0,0,5.38,20.84c-29.77,7.66-55.12,23.36-57.17,33.95-2,10.35-9.75-30.09-22.33-57.47a22.81,22.81,0,1,0-14.42-.31c-10.81,20.68-11,38-18.72,53.48-10.69-6.88-30.53-28.59-51.38-40.72a24.47,24.47,0,0,0,1.1-3.77c2.59-13.36-5.42-26.16-17.88-28.56s-24.65,6.48-27.24,19.85,5.44,26.15,17.89,28.56a21.56,21.56,0,0,0,9.37-.28c16.34,23.94,24.57,50.58,25.14,94.49,40.1-2.33,108.39-4.23,134.13,5.78,5.27-27.26-6.64-65.57,27.15-100.71a19.24,19.24,0,0,0,5.14,1.9c11.4,2.19,22.62-6.34,25.08-19.06S2863,4122.34,2851.55,4120.14Z" transform="translate(-2533.59 -3975.73)"/></svg>