<svg id="Layer_70" data-name="Layer 70" xmlns="http://www.w3.org/2000/svg" viewBox="0 0 411.75 411.75"><defs><style>.cls-1{fill:#3eb49e;}.cls-2{fill:#f5d4b2;}.cls-3{fill:#31363d;}</style></defs><circle class="cls-1" cx="205.87" cy="205.87" r="205.87"/><path class="cls-2" d="M2847.52,3203.45a18.15,18.15,0,0,1-4.73,2.18c-1.87.51-2.34,3.47-.81,4.89a15.62,15.62,0,0,1,4.63,8.85c1.16,6.21-1.24,11.17-5.81,15.24a23.18,23.18,0,0,1-6.3,4,3.57,3.57,0,0,0-.93,6c4.55,3.88,5.86,9.35,3.48,15.18a21.21,21.21,0,0,1-9.58,11,11,11,0,0,1-1.91.8,2.91,2.91,0,0,0-2.39,2.94,3.53,3.53,0,0,0,1.27,3.14,12.75,12.75,0,0,1,4.68,8.09,12.89,12.89,0,0,1-1.27,7.27,26.41,26.41,0,0,1-7,8.79,39.8,39.8,0,0,1-7.66,4.14,61.89,61.89,0,0,1-7.49,1.9c-67.25,13.66-114.48-4-120.49-6.21-1.27-.46-5.46-3.17-6.59-3.18-.2,0-1.61-.35-1.61-.53V3197.19l7.53-5.29a4.72,4.72,0,0,0,.67-.59l.22-.26c13.35-16.79,21.93-34.64,31.89-53.63,6.65-12.7,8.32-39.8,8.26-50a10.8,10.8,0,0,1,11.07-10.78c2,0,6.23.16,8.77,1.09,3,1.11,5.59,5,8.17,10.09,3.51,6.89,5.73,14.34,7.82,21.81a69.21,69.21,0,0,1,1.86,8.52,30,30,0,0,1,.17,6.35c-.17,2.43-.31,4.85-.54,7.27-.48,4.76-1.15,9.49-2,14.2q-1.3,7.66-2.88,15.27l0,.17a5.09,5.09,0,0,1-.18,1.26c-1.66,6.52,5,10.34,8.91,12a32.55,32.55,0,0,0,6.52,1c21.5,0,57.56-.12,61.91-.11,2.91,0,5.83-.06,8.72.09a12.41,12.41,0,0,1,11.57,9.7C2857.09,3192.12,2853.84,3199.53,2847.52,3203.45Z" transform="translate(-2533.59 -3012.77)"/><path class="cls-3" d="M2677.17,3304.25a9.39,9.39,0,0,1-9.36,9.42h-34.52a9.39,9.39,0,0,1-9.36-9.42V3189a9.39,9.39,0,0,1,9.36-9.41h34.52a9.39,9.39,0,0,1,9.36,9.41Z" transform="translate(-2533.59 -3012.77)"/></svg>