<svg id="Graphic" xmlns="http://www.w3.org/2000/svg" viewBox="0 0 139.2 134.24"><defs><style>.cls-1{fill:#cf6c65;}.cls-2{fill:#424243;}.cls-3{fill:#9ed1e3;}.cls-4{fill:#f0f1f1;}.cls-5{fill:#d0534f;}.cls-6{fill:#f1e8da;}.cls-7{fill:#444445;}.cls-8{opacity:0.78;}.cls-9{fill:#bcd589;}.cls-10{fill:#dd7f7c;}.cls-11{fill:#917a56;}.cls-12{fill:#454446;}.cls-13{fill:#e9b13d;}.cls-14{fill:#e2b164;}.cls-15{fill:#ad9770;}.cls-16{fill:#644f34;}.cls-17{fill:none;}.cls-18{fill:#f0f0f1;}.cls-19{fill:#ae5451;}.cls-20{fill:#ebd9cd;}.cls-21{fill:#f9c1b2;}.cls-22{fill:#ddc0ac;}.cls-23{fill:#ddb99f;}.cls-24{opacity:0.6;}.cls-25{opacity:0.57;}</style></defs><rect class="cls-1" x="11.79" y="32.09" width="117.36" height="94.25"/><path class="cls-2" d="M639.59,219.29H527a29.31,29.31,0,0,0-4.59,0,1.34,1.34,0,0,1-.2,0l1.24,1.24v-90.4a22.61,22.61,0,0,0,0-3.68,1,1,0,0,1,0-.17l-1.24,1.24H634.8a30.58,30.58,0,0,0,4.59,0h.2c-.42-.41-.83-.83-1.24-1.24v82.59c0,3.81-.17,7.68,0,11.49v.17a1.24,1.24,0,0,0,2.48,0V137.94c0-3.82.17-7.68,0-11.49a1,1,0,0,1,0-.17,1.26,1.26,0,0,0-1.24-1.24H536.7c-4.74,0-9.53-.19-14.27,0h-.2a1.26,1.26,0,0,0-1.24,1.24v82.59c0,3.81-.17,7.68,0,11.49v.17a1.25,1.25,0,0,0,1.24,1.23H625.12c4.74,0,9.53.2,14.27,0h.2A1.24,1.24,0,0,0,639.59,219.29Z" transform="translate(-510.45 -94.19)"/><rect class="cls-3" x="47.98" y="62.84" width="72.53" height="56.84"/><path class="cls-2" d="M631,155.78H558.43a1.26,1.26,0,0,0-1.24,1.24v56.84a1.26,1.26,0,0,0,1.24,1.24H631a1.13,1.13,0,0,0,.84-.33s0,0,0,0,0,0,0,0a1.1,1.1,0,0,0,.34-.84V157A1.26,1.26,0,0,0,631,155.78Zm-24.58,56.84H559.67V158.26h70.05v54.36Z" transform="translate(-510.45 -94.19)"/><rect class="cls-4" x="2.79" y="125.82" width="135.17" height="6.71"/><path class="cls-2" d="M514.47,227.23v-6.7l-1.23,1.23H642.9a38.62,38.62,0,0,0,5.27,0h.23l-1.23-1.23v6.7a1.24,1.24,0,0,0,2.47,0v-6.7a1.26,1.26,0,0,0-1.24-1.24H529.87c-5.45,0-11-.2-16.4,0h-.23a1.25,1.25,0,0,0-1.24,1.24v6.7a1.24,1.24,0,0,0,2.47,0Z" transform="translate(-510.45 -94.19)"/><rect class="cls-5" x="5.44" y="29" width="130.08" height="6.18"/><path class="cls-2" d="M646.87,122.35a.08.08,0,0,0,0,0l0,0A1.16,1.16,0,0,0,646,122h-114c-5.26,0-10.57-.2-15.83,0h-.22a1.26,1.26,0,0,0-1.24,1.24v6.18a1.26,1.26,0,0,0,1.24,1.24h114c5.26,0,10.57.2,15.83,0H646a1.26,1.26,0,0,0,1.24-1.24v-6.18A1.13,1.13,0,0,0,646.87,122.35ZM633,128.13H521.21c-1.3,0-2.73-.15-4.08-.09v-3.61H629.91c4.92,0,9.89.17,14.82,0v3.67Z" transform="translate(-510.45 -94.19)"/><path class="cls-5" d="M541.74,164.55h-1c-5.58,0-10.15,3.45-10.15,7.65V220H551.9V172.2C551.9,168,547.33,164.55,541.74,164.55Z" transform="translate(-510.45 -94.19)"/><path class="cls-2" d="M541.74,163.32c-3.59,0-7.19.74-9.86,3.32a8.54,8.54,0,0,0-2.5,6.54V220a1.25,1.25,0,0,0,1.24,1.24H551.9a1.25,1.25,0,0,0,1.23-1.24V175.59c0-2.25.23-4.59-.8-6.66-1.92-3.86-6.52-5.56-10.59-5.61a1.24,1.24,0,0,0,0,2.47c3.34.05,7.61,1.49,8.7,5,.47,1.51.22,3.44.22,5V220l1.24-1.24H530.62l1.23,1.24V176.63c0-1.84-.36-4.31.31-6.08,1.43-3.8,6-4.76,9.58-4.76A1.24,1.24,0,0,0,541.74,163.32Z" transform="translate(-510.45 -94.19)"/><path class="cls-3" d="M548,179.26v-6c0-2.42-2.88-4.4-6.39-4.4H541c-3.52,0-6.39,2-6.39,4.4v6Z" transform="translate(-510.45 -94.19)"/><path class="cls-2" d="M548.64,179.26v-5a5.08,5.08,0,0,0-2.6-4.88c-3.83-2.23-12-1.38-12,4.26,0,1.87,0,3.73,0,5.6a.63.63,0,0,0,.62.62H548a.62.62,0,0,0,0-1.24H534.64l.62.62v-5.4c0-3.21,3.3-4.34,6.07-4.34s6.08,1.13,6.08,4.34v5.4A.62.62,0,0,0,548.64,179.26Z" transform="translate(-510.45 -94.19)"/><rect class="cls-6" x="49" y="93.41" width="70.82" height="3.12"/><path class="cls-7" d="M630.54,191H559.17v-3.68h71.37Zm-70.81-.56H630v-2.56H559.73Z" transform="translate(-510.45 -94.19)"/><path class="cls-2" d="M630.26,190.1H559.45c.2.21.41.42.62.62V187.6c-.21.21-.42.41-.62.62h70.81l-.61-.62v3.12a.62.62,0,0,0,1.23,0V187.6a.62.62,0,0,0-.62-.62H559.45a.62.62,0,0,0-.62.62v3.12a.62.62,0,0,0,.62.62h70.81A.62.62,0,0,0,630.26,190.1Z" transform="translate(-510.45 -94.19)"/><g class="cls-8"><rect class="cls-6" x="80.8" y="101.29" width="38.52" height="1.75"/><path class="cls-7" d="M630.05,197.5H591v-2.31h39.08Zm-38.52-.56h38v-1.19h-38Z" transform="translate(-510.45 -94.19)"/><rect class="cls-6" x="83.53" y="103.03" width="1.98" height="15.36"/><path class="cls-7" d="M596.24,212.85H593.7V196.94h2.54Zm-2-.55h1.43V197.5h-1.43Z" transform="translate(-510.45 -94.19)"/><rect class="cls-6" x="91.52" y="103.03" width="1.98" height="15.36"/><path class="cls-7" d="M604.23,212.85h-2.54V196.94h2.54Zm-2-.55h1.42V197.5h-1.42Z" transform="translate(-510.45 -94.19)"/><rect class="cls-6" x="99.51" y="103.03" width="1.98" height="15.36"/><path class="cls-7" d="M612.22,212.85h-2.54V196.94h2.54Zm-2-.55h1.42V197.5h-1.42Z" transform="translate(-510.45 -94.19)"/><rect class="cls-6" x="107.51" y="103.03" width="1.98" height="15.36"/><path class="cls-7" d="M620.21,212.85h-2.54V196.94h2.54Zm-2-.55h1.43V197.5h-1.43Z" transform="translate(-510.45 -94.19)"/><rect class="cls-6" x="115.5" y="103.03" width="1.98" height="15.36"/><path class="cls-7" d="M628.21,212.85h-2.54V196.94h2.54Zm-2-.55h1.43V197.5h-1.43Z" transform="translate(-510.45 -94.19)"/></g><rect class="cls-3" x="24.2" y="89.92" width="13.38" height="29.31"/><path class="cls-2" d="M548,212.79H534.64l.62.62V184.1l-.62.62H548l-.62-.62v29.31a.62.62,0,0,0,1.23,0V184.1a.63.63,0,0,0-.61-.62H534.64a.64.64,0,0,0-.62.62v29.31a.62.62,0,0,0,.62.62H548A.62.62,0,0,0,548,212.79Z" transform="translate(-510.45 -94.19)"/><rect class="cls-4" x="47.87" y="39.41" width="72.65" height="19.19"/><path class="cls-2" d="M631,152.16H558.32c.2.21.41.42.62.62V133.59l-.62.62H631l-.62-.62v19.19a.62.62,0,0,0,1.24,0V133.59A.63.63,0,0,0,631,133H558.32a.63.63,0,0,0-.62.62v19.19a.62.62,0,0,0,.62.62H631A.62.62,0,0,0,631,152.16Z" transform="translate(-510.45 -94.19)"/><rect class="cls-4" x="0.62" y="108.52" width="23.58" height="2.74"/><path class="cls-2" d="M534.65,204.83H511.06l.62.62v-2.74l-.62.62h23.59l-.62-.62v2.74a.62.62,0,0,0,1.23,0v-2.74a.63.63,0,0,0-.61-.62H511.06a.62.62,0,0,0-.61.62v2.74a.62.62,0,0,0,.61.61h23.59A.62.62,0,0,0,534.65,204.83Z" transform="translate(-510.45 -94.19)"/><rect class="cls-4" x="2.94" y="111.23" width="18.95" height="13.98"/><path class="cls-2" d="M532.33,218.78h-19l.62.62v-14l-.62.62h19l-.62-.62v14a.62.62,0,0,0,1.24,0v-14a.63.63,0,0,0-.62-.62h-19a.63.63,0,0,0-.62.62v14a.64.64,0,0,0,.62.62h19A.62.62,0,0,0,532.33,218.78Z" transform="translate(-510.45 -94.19)"/><path class="cls-9" d="M533.52,202.65c0-.13,0-.26,0-.39a5.77,5.77,0,0,0-5.34-5.73,5.84,5.84,0,0,0-10.87.8h-.08a5,5,0,0,0-5.06,5c0,.1,0,.2,0,.31Z" transform="translate(-510.45 -94.19)"/><path class="cls-2" d="M534.14,202.65a6.5,6.5,0,0,0-5.95-6.74l.53.31a6.51,6.51,0,0,0-12,.95l.59-.46a5.71,5.71,0,0,0-5.75,5.94.63.63,0,0,0,.62.62h21.33a.62.62,0,0,0,0-1.24H512.19l.62.62a4.47,4.47,0,0,1,4.51-4.7.63.63,0,0,0,.6-.45,5.27,5.27,0,0,1,9.06-1.74c.38.48.54,1.16,1.13,1.38a11.31,11.31,0,0,1,2.44.82,5.19,5.19,0,0,1,2.35,4.69C532.87,203.44,534.11,203.44,534.14,202.65Z" transform="translate(-510.45 -94.19)"/><path class="cls-1" d="M522.23,122.35V95.75l117.36,27.18Z" transform="translate(-510.45 -94.19)"/><path class="cls-7" d="M639.59,124.42h0l-116-.58c-.39,0-.75,0-1.08,0l-.23,0v0c-.91-.1-1.5-.41-1.49-1.46V95.75a1.49,1.49,0,0,1,1.83-1.45l117.35,27.18a1.49,1.49,0,0,1-.33,2.94Zm-115.87-3.56,102.54.51L523.72,97.63Z" transform="translate(-510.45 -94.19)"/><path class="cls-4" d="M639.65,129.51a8.95,8.95,0,1,1-17.46-3.93,9.1,9.1,0,0,1,.59-1.76l-28.14-6.33a8.4,8.4,0,0,1-.21,1.85,9,9,0,1,1-13.09-9.78,9,9,0,1,1,16-3.25,9.19,9.19,0,0,1-.32,1.09l27.9,6.28a7.06,7.06,0,0,1,.18-1.12,8.95,8.95,0,1,1,13.08,9.78A8.9,8.9,0,0,1,639.65,129.51Z" transform="translate(-510.45 -94.19)"/><path class="cls-7" d="M630.94,137.71A10.17,10.17,0,0,1,621,125.32c0-.21.1-.42.16-.63L595.73,119c0,.21-.08.42-.12.63a10.16,10.16,0,0,1-18.5,3.2,10,10,0,0,1-1.33-7.66,10.19,10.19,0,0,1,3.9-6,10.19,10.19,0,0,1-1-7.07,10.16,10.16,0,0,1,19.84,4.38l25.4,5.71a10.17,10.17,0,0,1,19.82,4.54,10.2,10.2,0,0,1-3.91,6,10.15,10.15,0,0,1-8.92,15Zm-36.3-21.43a1.24,1.24,0,0,1,.27,0l28.14,6.33a1.2,1.2,0,0,1,.83,1.68,8.08,8.08,0,0,0-.51,1.53,7.74,7.74,0,1,0,15.1,3.4h0a7.72,7.72,0,0,0-1.25-6.2,1.22,1.22,0,0,1,.39-1.77,7.74,7.74,0,1,0-11.31-8.46,5.61,5.61,0,0,0-.15,1,1.21,1.21,0,0,1-.5.87,1.22,1.22,0,0,1-1,.21l-27.9-6.28a1.19,1.19,0,0,1-.8-.6,1.25,1.25,0,0,1-.07-1,6.69,6.69,0,0,0,.27-.93,7.74,7.74,0,1,0-13.84,2.8,1.23,1.23,0,0,1-.4,1.77,7.74,7.74,0,1,0,11.31,8.46,7.28,7.28,0,0,0,.19-1.6,1.26,1.26,0,0,1,.46-.94A1.24,1.24,0,0,1,594.64,116.28Z" transform="translate(-510.45 -94.19)"/><path class="cls-1" d="M570.25,172.3h.82l.37,0h0v-2a.83.83,0,1,0-1.66,0v2h0l.36,0Z" transform="translate(-510.45 -94.19)"/><path class="cls-10" d="M565.24,186.83l0,0-.11-.13v0a.83.83,0,0,1-.11-.15l0,0a.75.75,0,0,1-.07-.12l0-.05-.06-.16h0a1.21,1.21,0,0,1,0-.18.13.13,0,0,1,0-.06l0-.14v-.09c0-.05,0-.1,0-.16v-.92a8.09,8.09,0,0,1,.86-3.44c.13-.27.27-.52.41-.76a5.74,5.74,0,0,1,4.68-3.13,4.67,4.67,0,0,1,2.84,1l.13,0h0a2.62,2.62,0,0,1,.48.13,3.45,3.45,0,0,1,2.67.44,4.46,4.46,0,0,1,1.71,3.37,1.06,1.06,0,0,1-.32,1.12,1.45,1.45,0,0,1-.87.23,3.14,3.14,0,0,1-.75-.09h0a.43.43,0,0,1,0,.07l0,0,0,.07,0,0,.06.11a3.12,3.12,0,0,1,.24,1.46v.19h0a1.09,1.09,0,0,0,0,.18v0c0,.06,0,.11,0,.17h0c0,.06,0,.12,0,.18v0a.77.77,0,0,1,0,.15v0c0,.06,0,.11,0,.17v0c0,.05,0,.09,0,.14v0a.61.61,0,0,1,0,.12,1,1,0,0,1,.12.19H579a1.45,1.45,0,0,0,1.45-1.46v-1.65a12,12,0,0,0-2.91-7.62,9.57,9.57,0,0,0-6-3.45,7.59,7.59,0,0,0-2,0,9.76,9.76,0,0,0-6.29,3.86,12,12,0,0,0-2.58,7.21v1.65A1.46,1.46,0,0,0,562.2,187h3.15A1.14,1.14,0,0,1,565.24,186.83Z" transform="translate(-510.45 -94.19)"/><path class="cls-7" d="M577.9,176a10.16,10.16,0,0,0-6-3.57v-2.09a1.25,1.25,0,0,0-2.5,0v2.09a10.18,10.18,0,0,0-6.37,4,12.41,12.41,0,0,0-2.67,7.47v1.65a1.88,1.88,0,0,0,1.87,1.88h5.26a.13.13,0,0,0,0-.06h-1.38a1.91,1.91,0,0,1-.74-.37H562.2a1.46,1.46,0,0,1-1.46-1.46v-1.65a12,12,0,0,1,2.58-7.21,9.76,9.76,0,0,1,6.29-3.86,7.59,7.59,0,0,1,2,0,9.57,9.57,0,0,1,6,3.45,12,12,0,0,1,2.91,7.62v1.65A1.45,1.45,0,0,1,579,187h-2.16a1.73,1.73,0,0,1,.14.42h2a1.88,1.88,0,0,0,1.87-1.88v-1.65A12.41,12.41,0,0,0,577.9,176Zm-8.11-3.62v-2a.83.83,0,1,1,1.66,0v2h0l-.37,0h-.91l-.36,0Z" transform="translate(-510.45 -94.19)"/><path class="cls-7" d="M576.81,186.64v0Z" transform="translate(-510.45 -94.19)"/><path class="cls-7" d="M576.91,186.27v0Z" transform="translate(-510.45 -94.19)"/><path class="cls-7" d="M564.85,186.29l0,.05Z" transform="translate(-510.45 -94.19)"/><path class="cls-7" d="M577,185.66v0Z" transform="translate(-510.45 -94.19)"/><path class="cls-7" d="M564.69,185.69v0Z" transform="translate(-510.45 -94.19)"/><path class="cls-7" d="M576.94,186.06v0Z" transform="translate(-510.45 -94.19)"/><path class="cls-7" d="M565.24,186.83l0,0Z" transform="translate(-510.45 -94.19)"/><path class="cls-7" d="M577,185.87h0Z" transform="translate(-510.45 -94.19)"/><path class="cls-7" d="M564.72,185.88a.13.13,0,0,0,0,.06A.13.13,0,0,1,564.72,185.88Z" transform="translate(-510.45 -94.19)"/><path class="cls-7" d="M564.78,186.12h0Z" transform="translate(-510.45 -94.19)"/><path class="cls-7" d="M565.08,186.65v0Z" transform="translate(-510.45 -94.19)"/><path class="cls-7" d="M565,186.46l0,0Z" transform="translate(-510.45 -94.19)"/><path class="cls-7" d="M576.57,183.57a.43.43,0,0,0,0-.07A.43.43,0,0,1,576.57,183.57Z" transform="translate(-510.45 -94.19)"/><path class="cls-7" d="M576.65,183.68l0-.07Z" transform="translate(-510.45 -94.19)"/><path class="cls-7" d="M576.87,186.44v0Z" transform="translate(-510.45 -94.19)"/><path class="cls-7" d="M576.68,183.72l.06.11Z" transform="translate(-510.45 -94.19)"/><path class="cls-3" d="M566.19,181a3.93,3.93,0,0,1,.21-.55c-.11.17-.22.36-.33.55Z" transform="translate(-510.45 -94.19)"/><path class="cls-3" d="M567.9,178.71a3.61,3.61,0,0,1,2.42-.28,2.42,2.42,0,0,1,.46-.13h0l.25,0h1.62a4,4,0,0,0-2.06-.6A4.46,4.46,0,0,0,567.9,178.71Z" transform="translate(-510.45 -94.19)"/><path class="cls-7" d="M570.72,187.37h1.77s-.78,0-1.79-.06Z" transform="translate(-510.45 -94.19)"/><path class="cls-7" d="M570.62,177.24a5.74,5.74,0,0,0-4.68,3.13c-.14.24-.28.49-.41.76a.21.21,0,0,1,.16-.11l.38,0c.11-.19.22-.38.33-.55a3.43,3.43,0,0,1,1.24-1.56,2.26,2.26,0,0,1,.26-.16,4.46,4.46,0,0,1,2.72-1.06,4,4,0,0,1,2.06.6H573a3.41,3.41,0,0,1,.55.05l-.13,0A4.67,4.67,0,0,0,570.62,177.24Z" transform="translate(-510.45 -94.19)"/><path class="cls-11" d="M573,186.29h-1.68a3.18,3.18,0,0,1-2.65-1.42h-.09v-.15a3.16,3.16,0,0,1-.43-1.32,3.33,3.33,0,0,1-1.07.19,1.45,1.45,0,0,1-.87-.23,1.06,1.06,0,0,1-.32-1.12q.06-.45.15-.84h-.23a7.65,7.65,0,0,0-.76,3.16v.92a1.46,1.46,0,0,0,1.08,1.41h.22c.41,0,.83,0,1.23,0a1.43,1.43,0,0,1,.15-.22,1.63,1.63,0,0,1,1.31-.51,1.65,1.65,0,0,1,1.32.51,1.7,1.7,0,0,1,.15.22c1.09,0,1.94.06,2,.06h1.39a1.67,1.67,0,0,1,.18-.28,1.63,1.63,0,0,1,1.31-.51,1.84,1.84,0,0,1,1.06.28,3.74,3.74,0,0,0,.12-1,3.12,3.12,0,0,0-.2-1.45,1.17,1.17,0,0,0-.17-.28l0,0-.06.26h0A3.19,3.19,0,0,1,573,186.29Z" transform="translate(-510.45 -94.19)"/><path class="cls-4" d="M571.93,180.08v.2a3.32,3.32,0,0,1-.57,1.95H573a.21.21,0,0,1,.2.15,1,1,0,0,1-.2.85,1,1,0,0,1-.57.35.72.72,0,0,0,1.14.3.74.74,0,0,0,.16-.47.21.21,0,1,1,.42,0,1.12,1.12,0,0,1-.28.77,1,1,0,0,1-.78.3,1.06,1.06,0,0,1-.8-.3l-.08-.09-.08.09a1,1,0,0,1-.79.3,1,1,0,0,1-.79-.3,1.13,1.13,0,0,1-.3-.77.2.2,0,0,1,.21-.2.2.2,0,0,1,.2.21.72.72,0,0,0,.19.47.64.64,0,0,0,.49.18.66.66,0,0,0,.49-.17.68.68,0,0,0,.14-.3,1,1,0,0,1-.78-1.17,3,3,0,0,1-.32.24l-.49.25a4.58,4.58,0,0,0-.54.28,1.9,1.9,0,0,0-.81,1.43,2.75,2.75,0,0,0,2.33,1.27H573a2.74,2.74,0,0,0,2.35-1.32,1.81,1.81,0,0,0-.35-.74,3.93,3.93,0,0,0-1-.92l-.46-.34-.16-.13a2.91,2.91,0,0,1-.94-2.17,11.23,11.23,0,0,1-.06-1.58H572A11.33,11.33,0,0,1,571.93,180.08Z" transform="translate(-510.45 -94.19)"/><path class="cls-7" d="M574.07,178.43h0a2.62,2.62,0,0,0-.48-.13A2.52,2.52,0,0,1,574.07,178.43Z" transform="translate(-510.45 -94.19)"/><path class="cls-7" d="M572,178.45a1.55,1.55,0,0,1,0,.22h.43a.7.7,0,0,1,.08-.35.24.24,0,0,1,.16-.07h-.88A.2.2,0,0,1,572,178.45Z" transform="translate(-510.45 -94.19)"/><path class="cls-7" d="M571.36,178.25h0Z" transform="translate(-510.45 -94.19)"/><path class="cls-7" d="M571.06,178.27l-.25,0Z" transform="translate(-510.45 -94.19)"/><path class="cls-7" d="M570.32,178.43a4,4,0,0,1,.46-.13,2.42,2.42,0,0,0-.46.13Z" transform="translate(-510.45 -94.19)"/><path class="cls-7" d="M576.16,183.71l0-.15a2.71,2.71,0,0,1-.09.41Z" transform="translate(-510.45 -94.19)"/><path class="cls-7" d="M576.2,183.4h0a.62.62,0,0,1,0,.13A.62.62,0,0,0,576.2,183.4Z" transform="translate(-510.45 -94.19)"/><path class="cls-7" d="M573,185.87h-1.68A2.75,2.75,0,0,1,569,184.6v.05a.2.2,0,0,1-.16.2h0a.21.21,0,0,1-.18-.11,3.25,3.25,0,0,1-.43-1.36h0a3.16,3.16,0,0,0,.43,1.32v.15h.09a3.18,3.18,0,0,0,2.65,1.42H573A3.19,3.19,0,0,0,576.1,184a3.35,3.35,0,0,1-.35.8.22.22,0,0,1-.18.1.23.23,0,0,1-.11,0,.22.22,0,0,1-.07-.29h0A2.74,2.74,0,0,1,573,185.87Z" transform="translate(-510.45 -94.19)"/><path class="cls-11" d="M570.45,178.82l-.05,0h-.06a2.51,2.51,0,0,0-.53.29l-.09.08-.08.07-.07.08-.07.09-.06.08-.07.11,0,.08-.06.12a.59.59,0,0,0,0,.08.78.78,0,0,0-.05.14l0,.08,0,.14s0,.06,0,.08,0,.1,0,.15,0,.06,0,.08a.4.4,0,0,0,0,.15s0,.06,0,.09,0,.1,0,.14a.41.41,0,0,0,0,.11s0,.08,0,.12a.49.49,0,0,1,0,.12.37.37,0,0,1,0,.11v.13s0,.06,0,.09v.21a.41.41,0,0,0,0,.11v.09c0,.12,0,.24,0,.34a2.52,2.52,0,0,1,0,.47l0,.07v0l-.05.07h0l-.08.07h0l-.09.07h0a4.16,4.16,0,0,0,.14.75,2.27,2.27,0,0,1,.87-1.13,3.86,3.86,0,0,1,.6-.32c.16-.08.31-.15.44-.23a1.82,1.82,0,0,0,.29-.21,2.73,2.73,0,0,0,.56-1.82l0-.2a13.16,13.16,0,0,0,0-1.38h-.2A2.8,2.8,0,0,0,570.45,178.82Zm-.37,2.71a.47.47,0,1,1,.46-.47A.47.47,0,0,1,570.08,181.53Z" transform="translate(-510.45 -94.19)"/><path class="cls-11" d="M575.39,183.57a3.59,3.59,0,0,1,.26.45,2.76,2.76,0,0,0,.15-.81h0l-.1-.07h0l-.07-.07h0l-.05-.07h0l0-.08a2,2,0,0,1,0-.47c0-.83,0-2.55-.94-3.29a2.87,2.87,0,0,0-.49-.26l-.07,0-.06,0a2.74,2.74,0,0,0-.9-.15h-.23c0,.35,0,1.24.06,1.55a2.55,2.55,0,0,0,.8,1.89l.15.12.44.32A4.36,4.36,0,0,1,575.39,183.57Zm-1.09-3a.47.47,0,1,1-.46.46A.47.47,0,0,1,574.3,180.6Z" transform="translate(-510.45 -94.19)"/><path class="cls-11" d="M575.91,182.43a3.23,3.23,0,0,0,0,.35.57.57,0,0,0,.18.12h0a2.14,2.14,0,0,0,1.79.11c.18-.13.23-.37.16-.71h0a4.12,4.12,0,0,0-1.53-3.09,2.91,2.91,0,0,0-1.76-.45l.06,0C575.94,179.67,575.92,181.53,575.91,182.43Z" transform="translate(-510.45 -94.19)"/><path class="cls-11" d="M566.34,182.3h0c-.07.35,0,.58.17.71a2.1,2.1,0,0,0,1.77-.11h0a.68.68,0,0,0,.19-.12v-.35c0-.89,0-2.73,1.07-3.61l.09-.07h-.16a2.87,2.87,0,0,0-1.61.46A4.15,4.15,0,0,0,566.34,182.3Z" transform="translate(-510.45 -94.19)"/><path class="cls-7" d="M571.59,182.64a.64.64,0,0,0,.13.32.61.61,0,0,0,.48.22.62.62,0,0,0,.48-.22.64.64,0,0,0,.13-.32Z" transform="translate(-510.45 -94.19)"/><path class="cls-7" d="M570.54,181.06a.47.47,0,0,0-.46-.46.47.47,0,0,0,0,.93A.47.47,0,0,0,570.54,181.06Z" transform="translate(-510.45 -94.19)"/><path class="cls-7" d="M574.3,181.53a.47.47,0,1,0-.46-.47A.47.47,0,0,0,574.3,181.53Z" transform="translate(-510.45 -94.19)"/><path class="cls-11" d="M570.08,186.94a1.26,1.26,0,0,0-1-.37,1.28,1.28,0,0,0-1,.36,1.32,1.32,0,0,0-.24.82h.57v-.5a.21.21,0,0,1,.21-.21.22.22,0,0,1,.21.21v.5h.48v-.5a.21.21,0,0,1,.21-.21.22.22,0,0,1,.21.21v.5h.59A1.23,1.23,0,0,0,570.08,186.94Z" transform="translate(-510.45 -94.19)"/><path class="cls-11" d="M576.38,186.94a1.26,1.26,0,0,0-1-.37,1.24,1.24,0,0,0-1,.37,1.18,1.18,0,0,0-.24.81h.57v-.5a.21.21,0,0,1,.21-.21.22.22,0,0,1,.21.21v.5h.48v-.5a.21.21,0,0,1,.21-.21.22.22,0,0,1,.21.21v.5h.59A1.23,1.23,0,0,0,576.38,186.94Z" transform="translate(-510.45 -94.19)"/><path class="cls-12" d="M576.88,187a1,1,0,0,0-.12-.19.61.61,0,0,0,0-.12v0c0-.05,0-.09,0-.14v0c0-.06,0-.11,0-.17v0a.77.77,0,0,0,0-.15v0c0-.06,0-.12,0-.18h0c0-.06,0-.11,0-.17v0a1.09,1.09,0,0,1,0-.18h0v-.19a3.12,3.12,0,0,0-.24-1.46l-.06-.11,0,0,0-.07,0,0a.43.43,0,0,0,0-.07h0a3.14,3.14,0,0,0,.75.09,1.45,1.45,0,0,0,.87-.23,1.06,1.06,0,0,0,.32-1.12,4.46,4.46,0,0,0-1.71-3.37,3.45,3.45,0,0,0-2.67-.44h0a2.52,2.52,0,0,0-.47-.13h0a3.41,3.41,0,0,0-.55-.05h-.4a.24.24,0,0,0-.16.07.7.7,0,0,0-.08.35,11.23,11.23,0,0,0,.06,1.58,2.91,2.91,0,0,0,.94,2.17l.16.13.46.34a3.93,3.93,0,0,1,1,.92,1.81,1.81,0,0,1,.35.74h0a.22.22,0,0,0,.07.29.23.23,0,0,0,.11,0,.22.22,0,0,0,.18-.1,3.35,3.35,0,0,0,.35-.8h0a2.71,2.71,0,0,0,.09-.41l0,.15,0,0a1.17,1.17,0,0,1,.17.28,3.12,3.12,0,0,1,.2,1.45,3.74,3.74,0,0,1-.12,1,1.84,1.84,0,0,0-1.06-.28,1.63,1.63,0,0,0-1.31.51,1.67,1.67,0,0,0-.18.28H572.5s-.86,0-2-.06a1.7,1.7,0,0,0-.15-.22,1.65,1.65,0,0,0-1.32-.51,1.63,1.63,0,0,0-1.31.51,1.43,1.43,0,0,0-.15.22c-.4,0-.82,0-1.23,0h-.22a1.46,1.46,0,0,1-1.08-1.41v-.92a7.65,7.65,0,0,1,.76-3.16h.23q-.09.39-.15.84a1.06,1.06,0,0,0,.32,1.12,1.45,1.45,0,0,0,.87.23,3.33,3.33,0,0,0,1.07-.19h0a3.25,3.25,0,0,0,.43,1.36.21.21,0,0,0,.18.11h0a.2.2,0,0,0,.16-.2v-.05a1.9,1.9,0,0,1,.81-1.43,4.58,4.58,0,0,1,.54-.28l.49-.25a3,3,0,0,0,.32-.24,1,1,0,0,0,.78,1.17.68.68,0,0,1-.14.3.66.66,0,0,1-.49.17.64.64,0,0,1-.49-.18.72.72,0,0,1-.19-.47.2.2,0,0,0-.2-.21.2.2,0,0,0-.21.2,1.13,1.13,0,0,0,.3.77,1,1,0,0,0,.79.3,1,1,0,0,0,.79-.3l.08-.09.08.09a1.06,1.06,0,0,0,.8.3,1,1,0,0,0,.78-.3,1.12,1.12,0,0,0,.28-.77.21.21,0,1,0-.42,0,.74.74,0,0,1-.16.47.68.68,0,0,1-1.14-.3,1,1,0,0,0,.57-.35,1,1,0,0,0,.2-.85.21.21,0,0,0-.2-.15h-1.65a3.32,3.32,0,0,0,.57-1.95v-.2a11.33,11.33,0,0,0,0-1.41,1.55,1.55,0,0,0,0-.22.2.2,0,0,0-.2-.2h-.7l-.25,0h0a4,4,0,0,0-.46.13h0a3.61,3.61,0,0,0-2.42.28,2.26,2.26,0,0,0-.26.16,3.43,3.43,0,0,0-1.24,1.56,3.93,3.93,0,0,0-.21.55h-.12l-.38,0a.21.21,0,0,0-.16.11,8.09,8.09,0,0,0-.86,3.44v.92c0,.06,0,.11,0,.16v.09l0,.14a.13.13,0,0,0,0,.06,1.21,1.21,0,0,0,0,.18h0l.06.16,0,.05a.75.75,0,0,0,.07.12l0,0a.83.83,0,0,0,.11.15v0l.11.13,0,0a1.14,1.14,0,0,0,.11.11,1.91,1.91,0,0,0,.74.37h1.38a.13.13,0,0,1,0,.06,2.46,2.46,0,0,0,0,.62.21.21,0,0,0,.21.17h2.87a.2.2,0,0,0,.2-.17,1.71,1.71,0,0,0,0-.62l0-.06c1,0,1.78.06,1.79.06h1.27a2,2,0,0,0,0,.62.21.21,0,0,0,.21.17h2.87a.2.2,0,0,0,.2-.17,1.71,1.71,0,0,0,0-.62A1.73,1.73,0,0,0,576.88,187Zm-.25.8H576v-.5a.22.22,0,0,0-.21-.21.21.21,0,0,0-.21.21v.5h-.48v-.5a.22.22,0,0,0-.21-.21.21.21,0,0,0-.21.21v.5h-.57a1.18,1.18,0,0,1,.24-.81,1.24,1.24,0,0,1,1-.37,1.26,1.26,0,0,1,1,.37A1.23,1.23,0,0,1,576.63,187.75Zm-2.81-5.52-.15-.12a2.55,2.55,0,0,1-.8-1.89c0-.31-.07-1.2-.06-1.55H573a2.74,2.74,0,0,1,.9.15l.06,0,.07,0a2.87,2.87,0,0,1,.49.26c1,.74,1,2.46.94,3.29a2,2,0,0,0,0,.47l0,.08h0l.05.07h0l.07.07h0l.1.07h0a2.76,2.76,0,0,1-.15.81,3.59,3.59,0,0,0-.26-.45,4.36,4.36,0,0,0-1.13-1Zm.94-3.47a2.91,2.91,0,0,1,1.76.45,4.12,4.12,0,0,1,1.53,3.09h0c.07.34,0,.58-.16.71a2.14,2.14,0,0,1-1.79-.11h0a.57.57,0,0,1-.18-.12,3.23,3.23,0,0,1,0-.35c0-.9,0-2.76-1.09-3.63Zm1.44,4.64h0a.62.62,0,0,1,0,.13A.62.62,0,0,0,576.2,183.4Zm-5.87,4.35h-.59v-.5a.22.22,0,0,0-.21-.21.21.21,0,0,0-.21.21v.5h-.48v-.5a.22.22,0,0,0-.21-.21.21.21,0,0,0-.21.21v.5h-.57a1.32,1.32,0,0,1,.24-.82,1.28,1.28,0,0,1,1-.36,1.26,1.26,0,0,1,1,.37A1.23,1.23,0,0,1,570.33,187.75Zm-.69-9-.09.07c-1.1.88-1.08,2.72-1.07,3.61v.35a.68.68,0,0,1-.19.12h0a2.1,2.1,0,0,1-1.77.11c-.18-.13-.24-.36-.17-.71h0a4.15,4.15,0,0,1,1.53-3.09,2.87,2.87,0,0,1,1.61-.46Zm1.88,1.3,0,.2a2.73,2.73,0,0,1-.56,1.82,1.82,1.82,0,0,1-.29.21c-.13.08-.28.15-.44.23a3.86,3.86,0,0,0-.6.32,2.27,2.27,0,0,0-.87,1.13,4.16,4.16,0,0,1-.14-.75h0l.09-.07h0l.08-.07h0l.05-.07v0l0-.07a2.52,2.52,0,0,0,0-.47c0-.1,0-.22,0-.34V182a.41.41,0,0,1,0-.11v-.21s0-.06,0-.09v-.13a.37.37,0,0,0,0-.11.49.49,0,0,0,0-.12s0-.08,0-.12a.41.41,0,0,1,0-.11s0-.09,0-.14,0-.06,0-.09a.4.4,0,0,1,0-.15s0-.05,0-.08,0-.1,0-.15,0,0,0-.08l0-.14,0-.08a.78.78,0,0,1,.05-.14.59.59,0,0,1,0-.08l.06-.12,0-.08.07-.11.06-.08.07-.09.07-.08.08-.07.09-.08a2.51,2.51,0,0,1,.53-.29h.06l.05,0a2.8,2.8,0,0,1,.91-.15h.2A13.16,13.16,0,0,1,571.52,180.05Zm.68,3.13a.61.61,0,0,1-.48-.22.64.64,0,0,1-.13-.32h1.22a.64.64,0,0,1-.13.32A.62.62,0,0,1,572.2,183.18Z" transform="translate(-510.45 -94.19)"/><path class="cls-13" d="M582,196.82v2.4a8.68,8.68,0,0,0-2.2,0v-2.4a1.1,1.1,0,0,1,2.2,0Z" transform="translate(-510.45 -94.19)"/><path class="cls-7" d="M579.53,199.54v-2.72a1.38,1.38,0,1,1,2.76,0v2.72l-.32,0a7.53,7.53,0,0,0-2.12,0Zm1.38-.67a7.63,7.63,0,0,1,.82,0v-2.09a.82.82,0,1,0-1.64,0v2.09A7.63,7.63,0,0,1,580.91,198.87Z" transform="translate(-510.45 -94.19)"/><path class="cls-1" d="M586.88,210.8a9.08,9.08,0,0,0-1.68-3.9,5.6,5.6,0,0,0-4.29-2.52c-2.19,0-4.12,1.81-5.19,4a8.22,8.22,0,0,0-.88,3.54v1a1.76,1.76,0,0,0,1.33,1.7,1.59,1.59,0,0,0,.43.06h8.62A1.78,1.78,0,0,0,587,212.9v-1A7.17,7.17,0,0,0,586.88,210.8Z" transform="translate(-510.45 -94.19)"/><path class="cls-7" d="M585.22,214.94H576.6a2,2,0,0,1-2-2v-1a8.67,8.67,0,0,1,.91-3.67c1-2,2.92-4.15,5.44-4.15a5.8,5.8,0,0,1,4.51,2.63,9.41,9.41,0,0,1,1.74,4h0a7.92,7.92,0,0,1,.1,1.17v1A2,2,0,0,1,585.22,214.94Zm-4.31-10.28c-2.26,0-4,2-4.94,3.84a8,8,0,0,0-.85,3.42v1a1.47,1.47,0,0,0,1.12,1.43,1.56,1.56,0,0,0,.36,0h8.62a1.49,1.49,0,0,0,1.48-1.48v-1a6.53,6.53,0,0,0-.09-1.07h0a8.75,8.75,0,0,0-1.64-3.78A5.25,5.25,0,0,0,580.91,204.66Z" transform="translate(-510.45 -94.19)"/><path class="cls-14" d="M591.57,211.14v1.76a1.77,1.77,0,0,1-1.76,1.76h-4.59A1.78,1.78,0,0,0,587,212.9v-1a7.17,7.17,0,0,0-.1-1.12,9.08,9.08,0,0,0-1.68-3.9,5.6,5.6,0,0,0-4.29-2.52c-2.19,0-4.12,1.81-5.19,4a8.22,8.22,0,0,0-.88,3.54v1a1.76,1.76,0,0,0,1.33,1.7,1.59,1.59,0,0,0,.43.06H572a1.78,1.78,0,0,1-1.77-1.76v-1.76c0-5.49,4.22-11.22,9.57-11.92a8.68,8.68,0,0,1,2.2,0,10.37,10.37,0,0,1,6.43,3.72A13,13,0,0,1,591.57,211.14Z" transform="translate(-510.45 -94.19)"/><path class="cls-7" d="M589.81,214.94h-4.59v-.56a1.49,1.49,0,0,0,1.48-1.48v-1a6.53,6.53,0,0,0-.09-1.07,8.75,8.75,0,0,0-1.64-3.78,5.25,5.25,0,0,0-4.06-2.41c-2.26,0-4,2-4.94,3.84a8,8,0,0,0-.85,3.42v1a1.47,1.47,0,0,0,1.12,1.43,1.56,1.56,0,0,0,.36,0v.56H572a2,2,0,0,1-2-2v-1.76c0-5.91,4.49-11.5,9.8-12.2a8.63,8.63,0,0,1,2.27,0,10.67,10.67,0,0,1,6.61,3.82,13.15,13.15,0,0,1,3.2,8.38v1.76A2,2,0,0,1,589.81,214.94Zm-3.19-.56h3.19a1.48,1.48,0,0,0,1.48-1.48v-1.76a12.56,12.56,0,0,0-3.06-8,10.15,10.15,0,0,0-6.26-3.64,7.92,7.92,0,0,0-2.12,0c-5,.65-9.33,6.09-9.33,11.64v1.76a1.49,1.49,0,0,0,1.49,1.48h3.19a2,2,0,0,1-.64-1.48v-1a8.67,8.67,0,0,1,.91-3.67c1-2,2.92-4.15,5.44-4.15a5.8,5.8,0,0,1,4.51,2.63,9.4,9.4,0,0,1,1.74,4,7.68,7.68,0,0,1,.1,1.16v1A2,2,0,0,1,586.62,214.38Z" transform="translate(-510.45 -94.19)"/><path class="cls-3" d="M587,211.92v1a1.78,1.78,0,0,1-1.76,1.76H576.6a1.59,1.59,0,0,1-.43-.06,1.76,1.76,0,0,1-1.33-1.7v-1a8.22,8.22,0,0,1,.88-3.54c1.07-2.19,3-4,5.19-4a5.6,5.6,0,0,1,4.29,2.52,9.08,9.08,0,0,1,1.68,3.9A7.17,7.17,0,0,1,587,211.92Z" transform="translate(-510.45 -94.19)"/><path class="cls-7" d="M585.22,214.94H576.6a2,2,0,0,1-2-2v-1a8.67,8.67,0,0,1,.91-3.67c1-2,2.92-4.15,5.44-4.15a5.8,5.8,0,0,1,4.51,2.63,9.4,9.4,0,0,1,1.74,4,7.68,7.68,0,0,1,.1,1.16v1A2,2,0,0,1,585.22,214.94Zm-4.31-10.28c-2.26,0-4,2-4.94,3.84a8,8,0,0,0-.85,3.42v1a1.47,1.47,0,0,0,1.12,1.43,1.56,1.56,0,0,0,.36,0h8.62a1.49,1.49,0,0,0,1.48-1.48v-1a6.53,6.53,0,0,0-.09-1.07,8.75,8.75,0,0,0-1.64-3.78A5.25,5.25,0,0,0,580.91,204.66Z" transform="translate(-510.45 -94.19)"/><path class="cls-15" d="M566.35,212.66a1.75,1.75,0,0,1-1.29.58h-3.32a.26.26,0,0,1-.26-.26v-3.53a3.08,3.08,0,0,1,.07-.68h-2a2,2,0,0,0-.35,0,8.59,8.59,0,0,1-.47,1.94,12.55,12.55,0,0,1,.86,3.26,11,11,0,0,1,1.39-.1c2.13,0,4.25.07,6.37.14a4.57,4.57,0,0,0,1.31-1.39Z" transform="translate(-510.45 -94.19)"/><path class="cls-15" d="M572.9,209.25a.89.89,0,0,1-.88-.89V208h-2a.27.27,0,0,1-.26-.23c-.11-.79-.62-1.74-2.46-1.74a2.65,2.65,0,0,0-1.17.23,1.75,1.75,0,0,1,.63,1.34v3.89a1.7,1.7,0,0,1-.13.64h3a3.34,3.34,0,0,0,2-.65,2,2,0,0,1-1-.1.13.13,0,0,1-.06-.17.12.12,0,0,1,.16-.06,1.88,1.88,0,0,0,1.23,0h0a3.41,3.41,0,0,0,1-1.9Zm-5.33-1.09a.12.12,0,0,1,.16-.07A1.83,1.83,0,0,0,569,208h0a.13.13,0,0,1,.12.08.14.14,0,0,1-.07.16,2.08,2.08,0,0,1-1.41.06A.14.14,0,0,1,567.57,208.16Z" transform="translate(-510.45 -94.19)"/><path class="cls-16" d="M573.24,208h-.7v.36a.37.37,0,0,0,.36.37h.34a.37.37,0,0,0,0-.73Z" transform="translate(-510.45 -94.19)"/><path class="cls-7" d="M573.24,207.48h-3c-.27-1.25-1.33-2-2.94-2a2.94,2.94,0,0,0-1.69.45,1.87,1.87,0,0,0-.59-.1,3.58,3.58,0,0,0-3.37,2.38H559.5l-.3,0c0,.18,0,.36-.05.54a2,2,0,0,1,.35,0h2a3.08,3.08,0,0,0-.07.68V213a.26.26,0,0,0,.26.26h3.32a1.75,1.75,0,0,0,1.29-.58h2.26a4.57,4.57,0,0,1-1.31,1.39l.8,0a5.17,5.17,0,0,0,1.12-1.42h.41a3.94,3.94,0,0,0,3.91-3.47.88.88,0,0,0,.59-.83A.89.89,0,0,0,573.24,207.48Zm-7,4a1.21,1.21,0,0,1-1.21,1.21H562v-3.26a3.06,3.06,0,0,1,3.06-3.06,1.22,1.22,0,0,1,1.21,1.22Zm5.76-.35h0a1.88,1.88,0,0,1-1.23,0,.12.12,0,0,0-.16.06.13.13,0,0,0,.06.17,2,2,0,0,0,1,.1,3.34,3.34,0,0,1-2,.65h-3a1.7,1.7,0,0,0,.13-.64v-3.89a1.75,1.75,0,0,0-.63-1.34,2.65,2.65,0,0,1,1.17-.23c1.84,0,2.35,1,2.46,1.74a.27.27,0,0,0,.26.23h2v.35a.89.89,0,0,0,.88.89h.1A3.41,3.41,0,0,1,572,211.15Zm1.21-2.42h-.34a.37.37,0,0,1-.36-.37V208h.7a.37.37,0,0,1,0,.73Z" transform="translate(-510.45 -94.19)"/><path class="cls-11" d="M562,209.45v3.26h3.06a1.21,1.21,0,0,0,1.21-1.21v-3.89a1.22,1.22,0,0,0-1.21-1.22A3.06,3.06,0,0,0,562,209.45Z" transform="translate(-510.45 -94.19)"/><path class="cls-7" d="M567.64,208.32a2.08,2.08,0,0,0,1.41-.06.14.14,0,0,0,.07-.16A.13.13,0,0,0,569,208h0a1.83,1.83,0,0,1-1.23.06.12.12,0,0,0-.16.07A.14.14,0,0,0,567.64,208.32Z" transform="translate(-510.45 -94.19)"/><path class="cls-7" d="M620.43,168.14v-1.31a1,1,0,1,0-1.18-1,.18.18,0,1,0,.36,0,.64.64,0,0,1,.64-.63.63.63,0,0,1,0,1.26.19.19,0,0,0-.18.19v1.47a5.43,5.43,0,0,0-5.55,5.25v13.43a.18.18,0,0,0,.18.18h11.09a.18.18,0,0,0,.18-.18V173.38A5.42,5.42,0,0,0,620.43,168.14Zm0,.45a5,5,0,0,1,3.07,4.56v3.44h-.09a3.11,3.11,0,0,1-3-2.34s0,0,0-.05Zm0,6.46a3.05,3.05,0,0,0,2.3,1.78,3.51,3.51,0,0,1-2.3.18Zm0,2.34a2.64,2.64,0,0,0,.76.1,5.76,5.76,0,0,0,2.22-.54h.09v.38a4.39,4.39,0,0,1-3,1.18h0Zm0,1.49h0a4.69,4.69,0,0,0,3-1.06v1.72h-3.07Zm0,1h3.07v.45h-3.07Zm3.07.81v4.59h-1v-4.59Zm-1.37,0v4.59h-.33v-4.59Zm-1.7,0h1v4.59h-1ZM619,175.93a2,2,0,0,0,1,1.3l0,0v1.24a2.54,2.54,0,0,1-1.89-1.23,1.21,1.21,0,0,1,0-1.27,1.65,1.65,0,0,0,.34-1.62,1.31,1.31,0,0,0-.83-.6,2.11,2.11,0,0,1,1.47-.6,1,1,0,0,1,.76.69c.07.13.13.27.19.4v2.58a1.69,1.69,0,0,1-.73-1,.17.17,0,0,0-.21-.14A.18.18,0,0,0,619,175.93Zm.19-3.12c-1-.16-2,.9-2,.94a.18.18,0,0,0,.11.31s.7.05.91.47,0,.73-.32,1.27a1.59,1.59,0,0,0,0,1.63,2.93,2.93,0,0,0,2.21,1.43v.68H617v-6.39a4.91,4.91,0,0,1,3.08-4.56v4.86A1.31,1.31,0,0,0,619.18,172.81ZM617,180.35v-.45h3.08v.45Zm3.08.36v4.59h-1v-4.59Zm-1.38,0v4.59h-.33v-4.59Zm-.69,0v4.59h-1v-4.59Zm-3.12-7.32a6,6,0,0,1,.72-2.45,4.66,4.66,0,0,1,3.75-2.38,5.2,5.2,0,0,0-2.72,4.59V185.3h-1.75Zm10.73,13.25H614.88v-1h10.73Zm0-1.34h-1.75v-7.8a3.15,3.15,0,0,0,.48-.57.17.17,0,0,0,0-.18.18.18,0,0,0-.15-.1l-.34,0v-3.48a5.2,5.2,0,0,0-2.71-4.59,4.65,4.65,0,0,1,3.74,2.37,6,6,0,0,1,.72,2.45Z" transform="translate(-510.45 -94.19)"/><rect class="cls-11" x="106.55" y="85.71" width="3.07" height="0.45"/><rect class="cls-11" x="107.92" y="86.53" width="0.33" height="4.59"/><rect class="cls-17" x="108.61" y="86.53" width="1.01" height="4.59"/><rect class="cls-11" x="111.35" y="86.53" width="0.33" height="4.59"/><rect class="cls-17" x="112.05" y="86.53" width="1.01" height="4.59"/><rect class="cls-11" x="109.98" y="85.71" width="3.07" height="0.45"/><rect class="cls-17" x="109.98" y="86.53" width="1.01" height="4.59"/><rect class="cls-1" x="104.44" y="91.48" width="10.73" height="0.97"/><rect class="cls-17" x="106.55" y="86.53" width="1.01" height="4.59"/><path class="cls-17" d="M619.35,168.56a5.2,5.2,0,0,0-2.72,4.59V185.3h-1.75V173.39a6,6,0,0,1,.72-2.45A4.66,4.66,0,0,1,619.35,168.56Z" transform="translate(-510.45 -94.19)"/><path class="cls-17" d="M617.13,173.75a.18.18,0,0,0,.11.31s.7.05.91.47,0,.73-.32,1.27a1.59,1.59,0,0,0,0,1.63,2.93,2.93,0,0,0,2.21,1.43v.68H617v-6.39a4.91,4.91,0,0,1,3.08-4.56v4.86a1.31,1.31,0,0,0-.89-.64C618.21,172.65,617.17,173.71,617.13,173.75Z" transform="translate(-510.45 -94.19)"/><path class="cls-14" d="M619.13,175.72a.17.17,0,0,1,.21.14,1.69,1.69,0,0,0,.73,1v-2.58c-.06-.13-.12-.27-.19-.4a1,1,0,0,0-.76-.69,2.11,2.11,0,0,0-1.47.6,1.31,1.31,0,0,1,.83.6,1.65,1.65,0,0,1-.34,1.62,1.21,1.21,0,0,0,0,1.27,2.54,2.54,0,0,0,1.89,1.23v-1.24l0,0a2,2,0,0,1-1-1.3A.18.18,0,0,1,619.13,175.72Zm-.38-2a.33.33,0,0,1,.33-.33.32.32,0,0,1,.32.33.32.32,0,0,1-.32.32A.32.32,0,0,1,618.75,173.72Z" transform="translate(-510.45 -94.19)"/><path class="cls-17" d="M625.61,173.39V185.3h-1.75v-7.8a3.15,3.15,0,0,0,.48-.57.17.17,0,0,0,0-.18.18.18,0,0,0-.15-.1l-.34,0v-3.48a5.2,5.2,0,0,0-2.71-4.59,4.65,4.65,0,0,1,3.74,2.37A6,6,0,0,1,625.61,173.39Z" transform="translate(-510.45 -94.19)"/><path class="cls-17" d="M623.5,177.82v1.72h-3.07v-.66h0A4.69,4.69,0,0,0,623.5,177.82Z" transform="translate(-510.45 -94.19)"/><path class="cls-14" d="M623.5,177v.38a4.39,4.39,0,0,1-3,1.18h0v-1.13a2.64,2.64,0,0,0,.76.1,5.76,5.76,0,0,0,2.22-.54Z" transform="translate(-510.45 -94.19)"/><path class="cls-14" d="M622.73,176.83a3.51,3.51,0,0,1-2.3.18v-2A3.05,3.05,0,0,0,622.73,176.83Z" transform="translate(-510.45 -94.19)"/><path class="cls-17" d="M623.5,173.15v3.44h-.09a3.11,3.11,0,0,1-3-2.34s0,0,0-.05v-5.6A5,5,0,0,1,623.5,173.15Z" transform="translate(-510.45 -94.19)"/><path class="cls-7" d="M619.4,173.72a.32.32,0,0,1-.32.32.32.32,0,0,1-.33-.32.33.33,0,0,1,.33-.33A.32.32,0,0,1,619.4,173.72Z" transform="translate(-510.45 -94.19)"/><path class="cls-18" d="M599.23,201.5s-3.87-.28-5.94-3.07c0,0,.57,2.79,5.11,4.07Z" transform="translate(-510.45 -94.19)"/><path class="cls-7" d="M598.4,202.76h-.07c-4.64-1.3-5.27-4.15-5.29-4.27a.26.26,0,0,1,.15-.29.26.26,0,0,1,.31.08c2,2.67,5.71,3,5.75,3a.28.28,0,0,1,.22.16.27.27,0,0,1,0,.27l-.82,1A.29.29,0,0,1,598.4,202.76ZM594.52,200a8.12,8.12,0,0,0,3.79,2.19l.42-.5A9.77,9.77,0,0,1,594.52,200Z" transform="translate(-510.45 -94.19)"/><path class="cls-18" d="M614.45,205.86l-3,4-.61,1-1.3,1.92c1.5-.05,1.32,1.2,1.32,1.2H608.4a.26.26,0,0,1-.25-.19,2.32,2.32,0,0,1-.06-.61c.49-1.14.94-2.29,1.42-3.42.1-.25.21-.5.32-.74.33-.77.67-1.53,1.06-2.28,0,0,.35-.05.37-.1l.55-1.07.43-.83a.6.6,0,0,1,.82-.27l.21.1C613.57,204.78,614.6,205.56,614.45,205.86Z" transform="translate(-510.45 -94.19)"/><path class="cls-7" d="M610.89,214.3H608.4a.51.51,0,0,1-.5-.39,2,2,0,0,1,0-.77c.25-.61.5-1.22.75-1.81s.43-1.08.66-1.61c.1-.25.21-.5.32-.75.38-.88.72-1.61,1.06-2.28.07-.15.22-.17.39-.19h0l.92-1.81a.92.92,0,0,1,.51-.44.87.87,0,0,1,.67.06l.2.1a4.34,4.34,0,0,1,.82.6c.29.26.65.64.48,1l0,0-2.95,4-.61,1h0l-1,1.55a1.32,1.32,0,0,1,.79.41,1.35,1.35,0,0,1,.31,1.06A.26.26,0,0,1,610.89,214.3Zm-2.48-.52h2.21a.7.7,0,0,0-.18-.42,1.07,1.07,0,0,0-.86-.26.22.22,0,0,1-.23-.13.24.24,0,0,1,0-.27l1.29-1.92.61-1v0l2.92-4a3.36,3.36,0,0,0-1-.91l-.2-.1a.39.39,0,0,0-.28,0,.34.34,0,0,0-.2.17l-1,1.91c-.07.14-.22.17-.39.19h0c-.32.64-.64,1.33-1,2.16-.1.25-.21.49-.31.74-.23.53-.45,1.08-.66,1.6l-.74,1.79A2,2,0,0,0,608.41,213.78Z" transform="translate(-510.45 -94.19)"/><path class="cls-18" d="M600,208.08l-1.66,1.34-1.65,2.67c.4-.22,1,.14,1.23.48a1.69,1.69,0,0,1,0,1.47l-1.71-.43a10.72,10.72,0,0,0-.74-1.31.6.6,0,0,1,0-.68l.44-.72,1.23-2.71h0l.56-.78,2.06-2.88,3.58-.5S604.51,207.53,600,208.08Z" transform="translate(-510.45 -94.19)"/><path class="cls-7" d="M597.9,214.3h-.07l-1.71-.43a.28.28,0,0,1-.16-.12.2.2,0,0,1,0-.11s-.14-.3-.68-1.16l0,0a.9.9,0,0,1,0-1l.44-.71,1.22-2.68,0-.05,2.62-3.66a.23.23,0,0,1,.17-.1l3.59-.5a.25.25,0,0,1,.28.17,3.41,3.41,0,0,1-.28,2.72,4.1,4.1,0,0,1-3.14,1.66l-1.58,1.26-1.35,2.19a1.51,1.51,0,0,1,1,.66,2,2,0,0,1,0,1.72A.27.27,0,0,1,597.9,214.3Zm-1.51-.91,1.35.34a1.24,1.24,0,0,0,0-1c-.12-.24-.63-.52-.88-.38a.25.25,0,0,1-.31,0,.26.26,0,0,1,0-.31l1.65-2.68a.18.18,0,0,1,.05-.07l1.67-1.33a.31.31,0,0,1,.13-.06,3.68,3.68,0,0,0,2.84-1.42,2.83,2.83,0,0,0,.28-2.08l-3.25.46-2.54,3.54L596.11,211l0,0-.44.73a.35.35,0,0,0,0,.39v0l0,0A12.45,12.45,0,0,1,596.39,213.39Z" transform="translate(-510.45 -94.19)"/><path class="cls-18" d="M619.38,195a3.62,3.62,0,0,1-3.61,3.62h-.65l-.18.78.45,2.14-5-.48.66-2.57.12-.79.41-2.7a2.54,2.54,0,0,1,2.5-2.33,2.2,2.2,0,0,1,2.33,1.36h2a1,1,0,0,1,1,1Z" transform="translate(-510.45 -94.19)"/><path class="cls-7" d="M615.39,201.78h0l-5-.48a.27.27,0,0,1-.19-.11.23.23,0,0,1,0-.21l.65-2.56.53-3.46a2.78,2.78,0,0,1,2.76-2.57,2.54,2.54,0,0,1,2.5,1.36h1.8a1.23,1.23,0,0,1,1.23,1.23,3.88,3.88,0,0,1-3.87,3.88h-.44l-.12.52.44,2.09a.29.29,0,0,1-.07.23A.27.27,0,0,1,615.39,201.78Zm-4.64-1,4.31.42-.37-1.8a.2.2,0,0,1,0-.11l.18-.78a.25.25,0,0,1,.25-.2h.65a3.36,3.36,0,0,0,3.35-3.36.72.72,0,0,0-.71-.71h-2a.25.25,0,0,1-.24-.16,1.93,1.93,0,0,0-2.09-1.2,2.29,2.29,0,0,0-2.24,2.07s0,0,0,0l-.53,3.49v0Z" transform="translate(-510.45 -94.19)"/><path class="cls-18" d="M616,202.4v.86a4.19,4.19,0,0,1-4.19,4.19l-1.9-.37-.46-.08a13.8,13.8,0,0,0-1.56-.18,14.91,14.91,0,0,0-3.2.16l-3,.47a2.65,2.65,0,0,1-2.65-1.4,8.75,8.75,0,0,1-.74-2c-.08-.35-.71-2.52,2.1-3a5.2,5.2,0,0,1,1.76,0,25,25,0,0,0,4.2.37c1,0,3.25-.43,4.23-.5a17.24,17.24,0,0,1,4,0A1.41,1.41,0,0,1,616,202.4Z" transform="translate(-510.45 -94.19)"/><path class="cls-7" d="M601.42,207.74a3,3,0,0,1-2.54-1.57,8.63,8.63,0,0,1-.76-2v0a2.62,2.62,0,0,1,.24-2.13,2.92,2.92,0,0,1,2.07-1.15,5.25,5.25,0,0,1,1.85,0,25.78,25.78,0,0,0,4.16.36,23.68,23.68,0,0,0,2.52-.28c.66-.1,1.28-.19,1.69-.22a17.81,17.81,0,0,1,4,0,1.67,1.67,0,0,1,1.65,1.67v.86a4.46,4.46,0,0,1-4.45,4.45h-.05l-1.9-.38-.45-.08c-.52-.08-1-.14-1.53-.17a14.45,14.45,0,0,0-3.15.16l-3,.47A2.43,2.43,0,0,1,601.42,207.74Zm-.16-6.47a4.56,4.56,0,0,0-.75.06,2.44,2.44,0,0,0-1.73.92,2.17,2.17,0,0,0-.16,1.72v0a8.68,8.68,0,0,0,.7,1.92,2.44,2.44,0,0,0,2.39,1.27l3-.48a15.47,15.47,0,0,1,3.26-.16,14.71,14.71,0,0,1,1.58.18l.47.08,1.87.37a3.93,3.93,0,0,0,3.91-3.93v-.86a1.15,1.15,0,0,0-1.15-1.15h0a16.13,16.13,0,0,0-3.89,0c-.39,0-1,.11-1.65.21a23.75,23.75,0,0,1-2.6.29,25.38,25.38,0,0,1-4.25-.37A4.86,4.86,0,0,0,601.26,201.27Z" transform="translate(-510.45 -94.19)"/><path class="cls-7" d="M618.19,197.32h0a1.71,1.71,0,0,1-1.2,0,.13.13,0,0,0-.16.06.11.11,0,0,0,.06.16,2,2,0,0,0,1.38,0,.12.12,0,0,0,.08-.16A.13.13,0,0,0,618.19,197.32Z" transform="translate(-510.45 -94.19)"/><path class="cls-7" d="M617.54,197.74a1.76,1.76,0,0,1-.72-.13.15.15,0,0,1-.09-.1.17.17,0,0,1,0-.14.19.19,0,0,1,.25-.1,1.64,1.64,0,0,0,1.15,0,.19.19,0,1,1,.13.35A2.25,2.25,0,0,1,617.54,197.74Zm-.64-.35h0l0,0a0,0,0,0,0,0,0s0,0,0,0a1.93,1.93,0,0,0,1.33,0s0-.05,0-.07,0-.05-.07,0a1.84,1.84,0,0,1-1.26,0Z" transform="translate(-510.45 -94.19)"/><rect class="cls-19" x="610.05" y="199.8" width="5.81" height="1.17" rx="0.57" transform="translate(715.46 306.58) rotate(180)"/><path class="cls-7" d="M615.28,201.23h-4.66a.83.83,0,0,1-.83-.83v0a.83.83,0,0,1,.83-.83h4.66a.84.84,0,0,1,.84.83v0A.84.84,0,0,1,615.28,201.23Zm-4.66-1.17a.31.31,0,0,0-.31.31v0a.31.31,0,0,0,.31.31h4.66a.31.31,0,0,0,.32-.31v0a.31.31,0,0,0-.32-.31Z" transform="translate(-510.45 -94.19)"/><circle class="cls-7" cx="105.23" cy="100.88" r="0.32"/><path class="cls-7" d="M615.68,195.46a.4.4,0,0,1-.39-.39.39.39,0,1,1,.78,0A.4.4,0,0,1,615.68,195.46Zm0-.65a.26.26,0,0,0-.26.26.26.26,0,1,0,.52,0A.26.26,0,0,0,615.68,194.81Z" transform="translate(-510.45 -94.19)"/><ellipse class="cls-12" cx="89.95" cy="107.76" rx="0.86" ry="0.42"/><path class="cls-7" d="M600.4,202.43c-.52,0-.93-.21-.93-.49s.41-.48.93-.48.92.21.92.48S600.92,202.43,600.4,202.43Zm0-.84c-.47,0-.8.19-.8.35s.33.36.8.36.79-.19.79-.36S600.87,201.59,600.4,201.59Z" transform="translate(-510.45 -94.19)"/><path class="cls-12" d="M610.72,202.33c0,.24-.38.43-.86.43s-.86-.19-.86-.43.39-.42.86-.42S610.72,202.1,610.72,202.33Z" transform="translate(-510.45 -94.19)"/><path class="cls-7" d="M609.86,202.82c-.52,0-.92-.21-.92-.49s.4-.48.92-.48.93.21.93.48S610.38,202.82,609.86,202.82Zm0-.84c-.47,0-.79.19-.79.35s.32.36.79.36.8-.19.8-.36S610.33,202,609.86,202Z" transform="translate(-510.45 -94.19)"/><path class="cls-12" d="M613.86,204.75c0,.24-.39.43-.86.43s-.86-.19-.86-.43.38-.42.86-.42S613.86,204.52,613.86,204.75Z" transform="translate(-510.45 -94.19)"/><path class="cls-7" d="M613,205.24c-.52,0-.93-.21-.93-.49s.41-.48.93-.48.92.21.92.48S613.52,205.24,613,205.24Zm0-.84c-.47,0-.8.18-.8.35s.33.36.8.36.79-.19.79-.36S613.47,204.4,613,204.4Z" transform="translate(-510.45 -94.19)"/><path class="cls-12" d="M607.74,203.78c0,.24-.39.43-.86.43s-.87-.19-.87-.43.39-.42.87-.42S607.74,203.55,607.74,203.78Z" transform="translate(-510.45 -94.19)"/><path class="cls-7" d="M606.88,204.27c-.52,0-.93-.21-.93-.49s.41-.48.93-.48.92.21.92.48S607.39,204.27,606.88,204.27Zm0-.84c-.47,0-.8.19-.8.35s.33.36.8.36.79-.19.79-.36S607.34,203.43,606.88,203.43Z" transform="translate(-510.45 -94.19)"/><path class="cls-12" d="M609.63,206.76a.34.34,0,0,1-.15.24,13.8,13.8,0,0,0-1.56-.18.13.13,0,0,1,0-.06c0-.24.38-.43.86-.43S609.63,206.52,609.63,206.76Z" transform="translate(-510.45 -94.19)"/><path class="cls-7" d="M609.5,207.06h0a13.85,13.85,0,0,0-1.55-.17h0v0a.19.19,0,0,1,0-.08c0-.28.41-.49.93-.49s.92.21.92.49a.39.39,0,0,1-.17.29Zm-1.53-.3c.49,0,1,.09,1.49.17a.25.25,0,0,0,.11-.17c0-.17-.33-.36-.8-.36s-.8.19-.8.36Z" transform="translate(-510.45 -94.19)"/><path class="cls-12" d="M610.9,209.49c0,.23-.39.42-.86.42a1.4,1.4,0,0,1-.53-.09c.1-.25.21-.5.32-.74l.21,0C610.51,209.06,610.9,209.25,610.9,209.49Z" transform="translate(-510.45 -94.19)"/><path class="cls-7" d="M610,210a1.51,1.51,0,0,1-.55-.09l-.07,0,0-.07.32-.74v0H610c.52,0,.92.21.92.49S610.56,210,610,210Zm-.44-.19a1.51,1.51,0,0,0,.44.06c.47,0,.79-.19.79-.35s-.32-.36-.79-.36h-.17Z" transform="translate(-510.45 -94.19)"/><path class="cls-12" d="M604.68,204.65c0,.23-.39.42-.86.42s-.87-.19-.87-.42.39-.42.87-.42S604.68,204.42,604.68,204.65Z" transform="translate(-510.45 -94.19)"/><path class="cls-7" d="M603.82,205.14c-.52,0-.93-.22-.93-.49s.41-.49.93-.49.92.22.92.49S604.34,205.14,603.82,205.14Zm0-.85c-.47,0-.8.19-.8.36s.33.36.8.36.79-.19.79-.36S604.28,204.29,603.82,204.29Z" transform="translate(-510.45 -94.19)"/><path class="cls-12" d="M599.87,204.23c0,.23-.39.42-.86.42s-.86-.19-.86-.42.38-.42.86-.42S599.87,204,599.87,204.23Z" transform="translate(-510.45 -94.19)"/><path class="cls-7" d="M599,203.87c-.47,0-.8.19-.8.36s.33.36.8.36.79-.19.79-.36S599.48,203.87,599,203.87Zm-.8.61a.88.88,0,0,0,.32.17,1.36,1.36,0,0,0,.29.06H599a1.18,1.18,0,0,0,.27,0,1,1,0,0,0,.43-.14l0,0a.36.36,0,0,0,.19-.29h0c0-.28-.4-.49-.92-.49a1.81,1.81,0,0,0-.43,0,1.45,1.45,0,0,0-.25.1.56.56,0,0,0-.22.21Z" transform="translate(-510.45 -94.19)"/><ellipse class="cls-12" cx="103.98" cy="108.15" rx="0.86" ry="0.42"/><path class="cls-7" d="M614.42,202.82c-.52,0-.92-.21-.92-.49s.4-.48.92-.48.93.21.93.48S614.94,202.82,614.42,202.82Zm0-.84c-.47,0-.79.19-.79.35s.32.36.79.36.8-.19.8-.36S614.89,202,614.42,202Z" transform="translate(-510.45 -94.19)"/><path class="cls-12" d="M615.14,198.6h0l-.18.78c-.41,0-.73-.19-.73-.39s.36-.4.8-.4Z" transform="translate(-510.45 -94.19)"/><path class="cls-7" d="M615,199.45h0c-.46,0-.8-.21-.8-.45s.38-.46.87-.46h.14v.07h0Zm0-.79c-.43,0-.74.17-.74.33s.24.29.62.32l.15-.65Z" transform="translate(-510.45 -94.19)"/><path class="cls-12" d="M612,198.07c0,.22-.36.4-.81.4h-.09l.12-.79C611.63,197.68,612,197.86,612,198.07Z" transform="translate(-510.45 -94.19)"/><path class="cls-7" d="M611.17,198.54H611l.14-.92h.06c.48,0,.84.2.84.45S611.66,198.54,611.17,198.54Zm0-.13h0c.44,0,.74-.18.74-.34s-.26-.31-.66-.32Z" transform="translate(-510.45 -94.19)"/><path class="cls-12" d="M619,194h.11a.53.53,0,0,1,.53.53v.38a.17.17,0,0,1-.17.17H619a.53.53,0,0,1-.53-.53v0A.53.53,0,0,1,619,194Z" transform="translate(727.59 294.91) rotate(-180)"/><path class="cls-7" d="M619.06,195.35H619a.79.79,0,0,1-.79-.8v-.37a.43.43,0,0,1,.43-.43h.45a.8.8,0,0,1,0,1.6Zm-.36-1.08v.28a.28.28,0,0,0,.27.28h.09a.28.28,0,0,0,0-.56Z" transform="translate(-510.45 -94.19)"/><path class="cls-18" d="M616.59,212.71a1.71,1.71,0,0,0-.93.26l-.67-2-.24-.72,0-.11-.31-1-.71-3.57-2.2.46h0l.42,1.12.14.38.31.81,1.29,3.45.4,1.06.3.8a.6.6,0,0,0,.55.4h3.21A1.52,1.52,0,0,0,616.59,212.71Z" transform="translate(-510.45 -94.19)"/><path class="cls-7" d="M618.11,214.3h-3.24a.89.89,0,0,1-.77-.57l-2.85-7.62a.28.28,0,0,1,0-.22.3.3,0,0,1,.18-.13.28.28,0,0,1,.31.21h0l2.84,7.57a.36.36,0,0,0,.32.23h2.86a1.18,1.18,0,0,0-1.18-.81,1.38,1.38,0,0,0-.79.22.28.28,0,0,1-.22,0,.29.29,0,0,1-.17-.17l-.94-2.8-.31-1v0l-.71-3.58a.28.28,0,0,1,.21-.31.25.25,0,0,1,.3.21l.71,3.56.34,1.14.81,2.39a1.94,1.94,0,0,1,.78-.15,1.76,1.76,0,0,1,1.78,1.56.24.24,0,0,1-.06.2A.25.25,0,0,1,618.11,214.3Z" transform="translate(-510.45 -94.19)"/><path class="cls-18" d="M605.53,212.7a1.64,1.64,0,0,0-.92.26l-1.27-3v-2.13c2.32-3.88-1.18-5.07-1.18-5.07l-1.81,3.14,1.29,4.31.29.56.42.8.67,1.26.3.8a.61.61,0,0,0,.55.4h3.22A1.52,1.52,0,0,0,605.53,212.7Z" transform="translate(-510.45 -94.19)"/><path class="cls-7" d="M607.06,214.29h-3.24a.86.86,0,0,1-.77-.57l-.3-.78-1.37-2.61s0,0,0-.05L600.08,206a.24.24,0,0,1,.17-.32.25.25,0,0,1,.32.17l1.28,4.29,1.37,2.6,0,0,.29.8a.39.39,0,0,0,.32.23h2.87a1.19,1.19,0,0,0-1.19-.81,1.35,1.35,0,0,0-.78.22.28.28,0,0,1-.22,0,.26.26,0,0,1-.16-.15l-1.26-3a.54.54,0,0,1,0-.1l0-2.14a.2.2,0,0,1,0-.13,3.69,3.69,0,0,0,.62-3.11A3,3,0,0,0,602,203a.26.26,0,0,1-.16-.33.27.27,0,0,1,.33-.16,3.44,3.44,0,0,1,2,1.89,4.08,4.08,0,0,1-.62,3.5l0,2,1.14,2.69a1.86,1.86,0,0,1,.79-.16,1.77,1.77,0,0,1,1.79,1.56.29.29,0,0,1-.07.2A.25.25,0,0,1,607.06,214.29Z" transform="translate(-510.45 -94.19)"/><path class="cls-12" d="M613.49,193.42a3.88,3.88,0,0,0-.37,2,7.75,7.75,0,0,1,.37,2.17c0,.58-1.85-1.15-2.55-1.58s.73-3.1,1.4-3.13A1.26,1.26,0,0,1,613.49,193.42Z" transform="translate(-510.45 -94.19)"/><path class="cls-7" d="M613.39,198c-.33,0-.81-.36-1.73-1.09a10.78,10.78,0,0,0-.86-.65c-.23-.15-.47-.49-.26-1.26s1.12-2.32,1.79-2.35a1.54,1.54,0,0,1,1.39.63.29.29,0,0,1,0,.24,3.47,3.47,0,0,0-.36,1.85,8,8,0,0,1,.38,2.26.37.37,0,0,1-.21.34A.4.4,0,0,1,613.39,198Zm-1-4.83h-.06a3.56,3.56,0,0,0-1.31,2c-.09.34-.08.6,0,.68a9.23,9.23,0,0,1,.9.68,11.23,11.23,0,0,0,1.25.92,8.08,8.08,0,0,0-.35-1.88,3.59,3.59,0,0,1,.31-2.08A1.06,1.06,0,0,0,612.41,193.17Z" transform="translate(-510.45 -94.19)"/><path class="cls-12" d="M613.26,207.91c0,.23-.38.42-.86.42h0l-.31-.81a2,2,0,0,1,.35,0C612.88,207.49,613.26,207.68,613.26,207.91Z" transform="translate(-510.45 -94.19)"/><path class="cls-7" d="M612.4,208.4h-.09l-.34-.91.07,0a2.09,2.09,0,0,1,.36,0c.52,0,.93.22.93.49S612.92,208.4,612.4,208.4Zm-.26-.83.26.7c.48,0,.79-.19.79-.36s-.32-.36-.79-.36Z" transform="translate(-510.45 -94.19)"/><path class="cls-12" d="M615,211h-.18c-.47,0-.86-.19-.86-.42s.34-.4.77-.42l0,.11Z" transform="translate(-510.45 -94.19)"/><path class="cls-7" d="M614.81,211.08c-.52,0-.92-.22-.92-.49s.34-.46.82-.48h0l0,.16.27.8h-.27Zm-.14-.84c-.37,0-.65.18-.65.35s.32.36.79.36h.1Z" transform="translate(-510.45 -94.19)"/><path class="cls-12" d="M603.33,209.13h-.05c-.48,0-.86-.19-.86-.42s.38-.43.86-.43h0Z" transform="translate(-510.45 -94.19)"/><path class="cls-7" d="M603.28,209.19c-.52,0-.93-.21-.93-.48s.41-.49.93-.49h.1l0,1h-.12Zm0-.84c-.45,0-.77.19-.77.36s.32.35.79.35Z" transform="translate(-510.45 -94.19)"/><ellipse class="cls-12" cx="92.05" cy="111.21" rx="0.86" ry="0.42"/><path class="cls-7" d="M602.5,205.88c-.52,0-.93-.21-.93-.49s.41-.49.93-.49.92.22.92.49S603,205.88,602.5,205.88Zm0-.85c-.47,0-.8.19-.8.36s.33.36.8.36.79-.19.79-.36S603,205,602.5,205Z" transform="translate(-510.45 -94.19)"/><path class="cls-12" d="M598.39,207.83c0,.23-.39.42-.86.42a1.4,1.4,0,0,1-.43-.06h0l.56-.78C598.07,207.44,598.39,207.62,598.39,207.83Z" transform="translate(-510.45 -94.19)"/><path class="cls-7" d="M597.53,208.32a1.58,1.58,0,0,1-.45-.06l-.07,0,0-.09.57-.81h0c.46,0,.79.23.79.48S598.05,208.32,597.53,208.32Zm-.32-.17a1.12,1.12,0,0,0,.32,0c.47,0,.79-.19.79-.36s-.27-.32-.63-.35Z" transform="translate(-510.45 -94.19)"/><path class="cls-12" d="M603.16,211.14c0,.23-.37.42-.84.43l-.42-.8a1.68,1.68,0,0,1,.4-.05C602.78,210.72,603.16,210.91,603.16,211.14Z" transform="translate(-510.45 -94.19)"/><path class="cls-7" d="M602.28,211.63l-.47-.9.08,0a1.4,1.4,0,0,1,.41-.05c.52,0,.93.21.93.48s-.39.48-.91.49Zm-.28-.82.36.69c.44,0,.74-.19.74-.36s-.33-.35-.8-.35A1.51,1.51,0,0,0,602,210.81Z" transform="translate(-510.45 -94.19)"/><path class="cls-20" d="M600.81,186.19a2.4,2.4,0,0,1-.39.39h.33c0-.07,0-.13,0-.19S600.8,186.26,600.81,186.19Z" transform="translate(-510.45 -94.19)"/><path class="cls-20" d="M601.67,181.75v0a.18.18,0,0,1-.17.14h0l-.88-.13a6.11,6.11,0,0,1,.31.66l.2.14a.17.17,0,0,1,0,.24.16.16,0,0,1-.08.06,4.72,4.72,0,0,1,.23.88h0a3.39,3.39,0,0,1-.08,1.7l.18-.15c.79-.57,2.11-.35,3.08-.2l.52.08c.94.13,1.57,0,1.87-.38a1.47,1.47,0,0,0,.1-1.24C605.8,182.18,603.26,181.82,601.67,181.75Z" transform="translate(-510.45 -94.19)"/><path class="cls-20" d="M593.45,185.67a2.11,2.11,0,0,1,2.4.83,4.35,4.35,0,0,1,2.5-1.15l.45,0c.23,0,.44,0,.66-.08a1.75,1.75,0,0,0,.92-.42,2.32,2.32,0,0,0,.57-1,5.68,5.68,0,0,0-.33-1.12l-.5-.36a3.12,3.12,0,0,1-1.19,1,4.34,4.34,0,0,1-2,.61,4.59,4.59,0,0,1-1.9-.55,3.38,3.38,0,0,1-1.15-.93l-.2.1A4,4,0,0,0,593.45,185.67Z" transform="translate(-510.45 -94.19)"/><path class="cls-20" d="M600.3,182l0,0,.07,0A.56.56,0,0,0,600.3,182Z" transform="translate(-510.45 -94.19)"/><path class="cls-20" d="M593.9,178.82a1.74,1.74,0,0,1-.1-1.13.38.38,0,0,1,.24-.19,2.11,2.11,0,0,1,1.21.4l.17-.05a3.88,3.88,0,0,0-1.6-.63h-.13a.14.14,0,0,0-.1.08,3,3,0,0,0,.23,1.63Z" transform="translate(-510.45 -94.19)"/><path class="cls-21" d="M594.11,177.84h0a1.34,1.34,0,0,0,.07.67,2.48,2.48,0,0,1,.68-.46,1.62,1.62,0,0,0-.67-.23Z" transform="translate(-510.45 -94.19)"/><path class="cls-20" d="M598.73,177.89a2.14,2.14,0,0,1,1.2-.39.4.4,0,0,1,.25.19,1.81,1.81,0,0,1-.12,1.15l.08.13a2.91,2.91,0,0,0,.24-1.66.14.14,0,0,0-.1-.08,3.32,3.32,0,0,0-1.72.62Z" transform="translate(-510.45 -94.19)"/><path class="cls-21" d="M599.86,177.84a1.32,1.32,0,0,0-.72.21,2.58,2.58,0,0,1,.67.48,1.38,1.38,0,0,0,.07-.68Z" transform="translate(-510.45 -94.19)"/><path class="cls-20" d="M593.71,180.69a2.48,2.48,0,0,0,1.5,2.41,3.22,3.22,0,0,0,3.57-.06,2.4,2.4,0,0,0,1.43-2.33c0-2.36-1.55-2.68-3.22-2.68C595.93,178,593.73,178,593.71,180.69Zm4.34-1.35a.32.32,0,0,1,.32.32.32.32,0,1,1-.63,0A.32.32,0,0,1,598.05,179.34Zm-1,.88a.73.73,0,0,1,.66.27,1.26,1.26,0,0,1,.27,0,1.22,1.22,0,1,1,0,2.44,1.13,1.13,0,0,1-.45-.09.59.59,0,0,1-.48.24.67.67,0,0,1-.5-.24,1,1,0,0,1-.44.09,1.22,1.22,0,0,1,0-2.44,1.09,1.09,0,0,1,.26,0A.75.75,0,0,1,597,180.22Zm-.81-.56a.32.32,0,1,1-.63,0,.32.32,0,1,1,.63,0Z" transform="translate(-510.45 -94.19)"/><path class="cls-20" d="M597,182.45a1.07,1.07,0,0,1-.19.18.27.27,0,0,0,.19.07.23.23,0,0,0,.18-.07A.77.77,0,0,1,597,182.45Z" transform="translate(-510.45 -94.19)"/><path class="cls-21" d="M596.68,180.62a1.4,1.4,0,0,1,.33.27,1.18,1.18,0,0,1,.32-.27.71.71,0,0,0-.32-.06A.73.73,0,0,0,596.68,180.62Z" transform="translate(-510.45 -94.19)"/><path class="cls-22" d="M597.94,180.79a.87.87,0,0,0-.78.49.16.16,0,0,1-.15.09.17.17,0,0,1-.16-.09.88.88,0,1,0-.78,1.27.88.88,0,0,0,.78-.48.18.18,0,0,1,.16-.1.18.18,0,0,1,.15.1.88.88,0,1,0,.78-1.28Z" transform="translate(-510.45 -94.19)"/><path class="cls-7" d="M596.07,180.45a1.22,1.22,0,0,0,0,2.44,1,1,0,0,0,.44-.09.67.67,0,0,0,.5.24.59.59,0,0,0,.48-.24,1.13,1.13,0,0,0,.45.09,1.22,1.22,0,1,0,0-2.44,1.26,1.26,0,0,0-.27,0,.73.73,0,0,0-.66-.27.75.75,0,0,0-.68.26A1.09,1.09,0,0,0,596.07,180.45Zm2.75,1.22a.88.88,0,0,1-1.66.4.18.18,0,0,0-.15-.1.18.18,0,0,0-.16.1.88.88,0,1,1-.78-1.28.87.87,0,0,1,.78.49.17.17,0,0,0,.16.09.16.16,0,0,0,.15-.09.87.87,0,0,1,1.66.39Zm-1.81,1a.27.27,0,0,1-.19-.07,1.07,1.07,0,0,0,.19-.18.77.77,0,0,0,.18.18A.23.23,0,0,1,597,182.7Zm0-1.81a1.4,1.4,0,0,0-.33-.27.73.73,0,0,1,.33-.06.71.71,0,0,1,.32.06A1.18,1.18,0,0,0,597,180.89Z" transform="translate(-510.45 -94.19)"/><path class="cls-7" d="M595.57,179.66a.32.32,0,1,0,.63,0,.32.32,0,1,0-.63,0Z" transform="translate(-510.45 -94.19)"/><path class="cls-7" d="M598.05,180a.32.32,0,0,0,.32-.32.32.32,0,1,0-.63,0A.31.31,0,0,0,598.05,180Z" transform="translate(-510.45 -94.19)"/><path class="cls-22" d="M601,184.5a1.8,1.8,0,0,1-.41.55,2.09,2.09,0,0,1-1.09.5,5.43,5.43,0,0,1-.69.09l-.44.05a3.89,3.89,0,0,0-2.44,1.2h0a2.69,2.69,0,0,0-.2.27l-.06.1a1.08,1.08,0,0,0-.16.49.38.38,0,0,0,.28.39,1.13,1.13,0,0,0,1.06-.13,2.39,2.39,0,0,0,.23-.22c.07-.06.13-.13.21-.19a2.62,2.62,0,0,1,1.17-.6l.16,0h0C600.23,186.65,601,185.82,601,184.5Z" transform="translate(-510.45 -94.19)"/><path class="cls-22" d="M595.39,187.09a3.66,3.66,0,0,1,.23-.33,1.76,1.76,0,0,0-2.1-.76,1.35,1.35,0,0,0,.39,1.11,1.79,1.79,0,0,0,1.29.48A1.74,1.74,0,0,1,595.39,187.09Z" transform="translate(-510.45 -94.19)"/><path class="cls-23" d="M607.38,184a1.4,1.4,0,0,1-.26,1.05c-.37.48-1.1.65-2.18.51l-.53-.08a9.93,9.93,0,0,0-1.58-.17,2.12,2.12,0,0,0-1.24.3,1.23,1.23,0,0,0-.48.85,1.1,1.1,0,0,0,0,.18,1,1,0,0,0,.24.65,1.38,1.38,0,0,0,.95.39,20.91,20.91,0,0,0,2.4,0,4.66,4.66,0,0,0,2.42-.64,1.94,1.94,0,0,0,1-1.5A2.11,2.11,0,0,0,607.38,184Z" transform="translate(-510.45 -94.19)"/><path class="cls-7" d="M607.23,183.38a6.38,6.38,0,0,0-4.2-1.85,15.86,15.86,0,0,0-2.55-.14,2.33,2.33,0,0,0,0-.28l.89-.12a.17.17,0,0,0,.15-.19.17.17,0,0,0-.19-.15l-.83.12v-.06a3.82,3.82,0,0,0-.21-1.31c.13-.32.64-1.69.34-2.25a.49.49,0,0,0-.33-.25,4.17,4.17,0,0,0-2.27.85,9.93,9.93,0,0,0-2.18,0c-.29-.19-1.54-1-2.27-.85a.49.49,0,0,0-.34.25c-.29.53.17,1.81.32,2.2a4,4,0,0,0-.24,1.34s0,.07,0,.1h-.86a.17.17,0,1,0,0,.34h.88a2.57,2.57,0,0,0,.07.4l-.86.14a.16.16,0,0,0-.14.19.16.16,0,0,0,.16.14h0l.91-.14s0,.07,0,.11-.1.19-.17.35l-.68.33a.17.17,0,0,0,.07.33l.07,0,.35-.17a3.88,3.88,0,0,0-.06,3.12,1.69,1.69,0,0,0,.49,1.44,2.15,2.15,0,0,0,1.44.58h.09a.74.74,0,0,0,.47.52,1.4,1.4,0,0,0,.54.1,1.37,1.37,0,0,0,.86-.28,2,2,0,0,0,.26-.24l.19-.18a2.4,2.4,0,0,1,1-.52l.13,0h0a4.6,4.6,0,0,0,.64-.16h.06a3.25,3.25,0,0,0,.44-.13,2.1,2.1,0,0,1,.95-.09,1.18,1.18,0,0,0,.28.57,1.7,1.7,0,0,0,1.18.5c.5,0,1,.07,1.58.07l.86,0a5.09,5.09,0,0,0,2.59-.69h0a2.26,2.26,0,0,0,1.16-1.77A2.75,2.75,0,0,0,607.23,183.38Zm.87,2.18a1.94,1.94,0,0,1-1,1.5,4.66,4.66,0,0,1-2.42.64,20.91,20.91,0,0,1-2.4,0,1.38,1.38,0,0,1-.95-.39,1,1,0,0,1-.24-.65,1.1,1.1,0,0,1,0-.18,1.23,1.23,0,0,1,.48-.85,2.12,2.12,0,0,1,1.24-.3,9.93,9.93,0,0,1,1.58.17l.53.08c1.08.14,1.81,0,2.18-.51a1.4,1.4,0,0,0,.26-1.05A2.11,2.11,0,0,1,608.1,185.56Zm-7.58,1h-.1a2.4,2.4,0,0,0,.39-.39c0,.07,0,.13,0,.2s0,.12,0,.19Zm-1.88.39-.16,0a2.62,2.62,0,0,0-1.17.6c-.08.06-.14.13-.21.19a2.39,2.39,0,0,1-.23.22,1.13,1.13,0,0,1-1.06.13.38.38,0,0,1-.28-.39,1.08,1.08,0,0,1,.16-.49l.06-.1a2.69,2.69,0,0,1,.2-.27h0a3.89,3.89,0,0,1,2.44-1.2l.44-.05a5.43,5.43,0,0,0,.69-.09,2.09,2.09,0,0,0,1.09-.5,1.8,1.8,0,0,0,.41-.55c0,1.32-.79,2.15-2.38,2.47Zm-4.73.14a1.35,1.35,0,0,1-.39-1.11,1.76,1.76,0,0,1,2.1.76,3.66,3.66,0,0,0-.23.33,1.74,1.74,0,0,0-.19.5A1.79,1.79,0,0,1,593.91,187.11Zm-.32-9.8a.14.14,0,0,1,.1-.08h.13a3.88,3.88,0,0,1,1.6.63l-.17.05a2.11,2.11,0,0,0-1.21-.4.38.38,0,0,0-.24.19,1.74,1.74,0,0,0,.1,1.13l-.08.12A3,3,0,0,1,593.59,177.31Zm6.69-.08a.14.14,0,0,1,.1.08,2.91,2.91,0,0,1-.24,1.66l-.08-.13a1.81,1.81,0,0,0,.12-1.15.4.4,0,0,0-.25-.19,2.14,2.14,0,0,0-1.2.39l-.17,0A3.32,3.32,0,0,1,600.28,177.23Zm-.47,1.3a2.58,2.58,0,0,0-.67-.48,1.32,1.32,0,0,1,.72-.21h0A1.38,1.38,0,0,1,599.81,178.53Zm.49,3.45a.56.56,0,0,1,.05.08l-.07,0Zm6.66,1.6a1.47,1.47,0,0,1-.1,1.24c-.3.38-.93.51-1.87.38l-.52-.08c-1-.15-2.29-.37-3.08.2l-.18.15a3.39,3.39,0,0,0,.08-1.7h0a4.72,4.72,0,0,0-.23-.88.16.16,0,0,0,.08-.06.17.17,0,0,0,0-.24l-.2-.14a6.11,6.11,0,0,0-.31-.66l.88.13h0a.18.18,0,0,0,.17-.14v0C603.26,181.82,605.8,182.18,607,183.58Zm-6.75-2.87a2.4,2.4,0,0,1-1.43,2.33,3.22,3.22,0,0,1-3.57.06,2.48,2.48,0,0,1-1.5-2.41c0-2.66,2.22-2.66,3.28-2.66C598.66,178,600.21,178.35,600.21,180.71Zm-6.05-2.19a1.34,1.34,0,0,1-.07-.67h.08a1.62,1.62,0,0,1,.67.23A2.48,2.48,0,0,0,594.16,178.52Zm-.26,3.95a3.38,3.38,0,0,0,1.15.93,4.59,4.59,0,0,0,1.9.55,4.34,4.34,0,0,0,2-.61,3.12,3.12,0,0,0,1.19-1l.5.36a5.68,5.68,0,0,1,.33,1.12,2.32,2.32,0,0,1-.57,1,1.75,1.75,0,0,1-.92.42c-.22,0-.43.06-.66.08l-.45,0a4.35,4.35,0,0,0-2.5,1.15,2.11,2.11,0,0,0-2.4-.83,4,4,0,0,1,.25-3.1Z" transform="translate(-510.45 -94.19)"/><g class="cls-24"><rect class="cls-3" x="48.08" y="62.78" width="72.75" height="57.01"/></g><g class="cls-25"><path class="cls-4" d="M590.13,161,576,179.1l-2,2.57c-.49.62.38,1.5.87.87L589,164.42l2-2.57c.48-.62-.39-1.5-.87-.87Z" transform="translate(-510.45 -94.19)"/></g><g class="cls-25"><path class="cls-4" d="M593.3,165.12l-9.65,12.4c-.49.62.39,1.5.87.87L594.17,166c.49-.62-.38-1.5-.87-.88Z" transform="translate(-510.45 -94.19)"/></g><g class="cls-25"><path class="cls-4" d="M622.4,181.45l-11.24,14.43c-.56.73.45,1.76,1,1l11.24-14.43c.56-.72-.45-1.75-1-1Z" transform="translate(-510.45 -94.19)"/></g><g class="cls-25"><path class="cls-4" d="M618.7,176.62l-16.43,21.11-2.33,3c-.56.73.45,1.76,1,1q8.22-10.54,16.43-21.1c.78-1,1.55-2,2.33-3,.56-.72-.45-1.75-1-1Z" transform="translate(-510.45 -94.19)"/></g><path class="cls-2" d="M631,155.78H558.43a1.26,1.26,0,0,0-1.24,1.24v56.84a1.26,1.26,0,0,0,1.24,1.24H631a1.13,1.13,0,0,0,.84-.33s0,0,0,0,0,0,0,0a1.1,1.1,0,0,0,.34-.84V157A1.26,1.26,0,0,0,631,155.78Zm-24.58,56.84H559.67V158.26h70.05v54.36Z" transform="translate(-510.45 -94.19)"/><rect class="cls-4" x="110.42" y="107.54" width="26.49" height="3.07"/><path class="cls-2" d="M647.36,204.18H620.87c.21.2.41.41.62.62v-3.08c-.21.21-.41.42-.62.62h26.49l-.62-.62v3.08a.62.62,0,0,0,1.24,0v-3.08a.63.63,0,0,0-.62-.62H620.87a.64.64,0,0,0-.62.62v3.08a.62.62,0,0,0,.62.61h26.49A.62.62,0,0,0,647.36,204.18Z" transform="translate(-510.45 -94.19)"/><rect class="cls-4" x="113.03" y="110.58" width="21.29" height="15.71"/><path class="cls-2" d="M644.76,219.85H623.47l.62.62v-15.7l-.62.61h21.29l-.62-.61v15.7a.62.62,0,0,0,1.24,0v-15.7a.62.62,0,0,0-.62-.62H623.47a.63.63,0,0,0-.62.62v15.7a.63.63,0,0,0,.62.62h21.29A.62.62,0,0,0,644.76,219.85Z" transform="translate(-510.45 -94.19)"/><path class="cls-9" d="M646.1,201.65c0-.14,0-.29,0-.44a6.5,6.5,0,0,0-6-6.43,6.56,6.56,0,0,0-12.21.9h-.09a5.66,5.66,0,0,0-5.69,5.63c0,.11,0,.23,0,.34Z" transform="translate(-510.45 -94.19)"/><path class="cls-2" d="M646.72,201.65a7.21,7.21,0,0,0-6.61-7.49l.54.31a7.25,7.25,0,0,0-13.35,1.05l.6-.46a6.35,6.35,0,0,0-6.39,6.59.62.62,0,0,0,.62.62h24a.62.62,0,0,0,0-1.24h-24l.62.62a5.1,5.1,0,0,1,5.15-5.35.63.63,0,0,0,.6-.45,6,6,0,0,1,10.12-2.22c.48.54.73,1.5,1.41,1.76.43.16,1,.14,1.42.29a5.86,5.86,0,0,1,4,6C645.45,202.45,646.69,202.45,646.72,201.65Z" transform="translate(-510.45 -94.19)"/></svg>