<svg id="Layer_2" data-name="Layer 2" xmlns="http://www.w3.org/2000/svg" viewBox="0 0 685.75 523.28"><defs><style>.cls-1{fill:#9bb55b;}.cls-2{fill:#b3cf6b;}.cls-3{fill:#8a9e52;}.cls-4{fill:#b7876c;}.cls-5{fill:#54382f;}.cls-6{fill:#c99379;}.cls-7{fill:#82807f;}.cls-8{fill:#6d6d6c;}.cls-9{fill:#7c5445;}.cls-10{fill:#6d483d;}.cls-11{opacity:0.24;}.cls-12{fill:#fff;}.cls-13{fill:#a07560;}.cls-14{fill:#231f20;}.cls-15{fill:#e2d7c0;}</style></defs><title>12</title><path class="cls-1" d="M1842.52,1231.28c-1.87-19-12.17-36-19.07-53.8-3.47-9-6.15-18.36-11.22-26.53s-13.15-15.2-22.73-16-20,6.55-19.86,16.17c-17.36-2.95-35.73,10.89-37.7,28.39-.41,3.71-.21,7.58-1.66,11-1.19,2.83-3.39,5.09-5.25,7.54a36.76,36.76,0,0,0,17.67,57.17c-9,5.66-9.25,19.87-2.62,28.23a27.54,27.54,0,0,0,3.43,3.56h65.59l5.69-12.08C1833.77,1272.66,1844.39,1250.29,1842.52,1231.28Z" transform="translate(-1717.24 -763.71)"/><path class="cls-2" d="M1772.56,1283.43c-6.63-8.36-6.43-22.57,2.61-28.23a36.77,36.77,0,0,1-17.66-57.17c1.86-2.45,4.06-4.71,5.25-7.54,1.45-3.44,1.24-7.31,1.66-11,2-17.5,20.34-31.34,37.7-28.39a14,14,0,0,1,2.9-8.56c-4.45-4.14-9.86-7.08-15.86-7.61-9.58-.83-20,6.55-19.85,16.17-17.36-2.95-35.74,10.89-37.7,28.39-.41,3.71-.21,7.58-1.66,11-1.19,2.83-3.39,5.09-5.25,7.54a36.76,36.76,0,0,0,17.67,57.17c-9,5.66-9.25,19.87-2.62,28.23a26.89,26.89,0,0,0,3.43,3.56H1776A26.89,26.89,0,0,1,1772.56,1283.43Z" transform="translate(-1717.24 -763.71)"/><path class="cls-1" d="M2386,1194.74c-18.38-9.53-33-2.06-33-2.06s2.05-10.64.57-15.8c-6.72-23.53-20.08-31.33-39.16-33.7,5.27-7.91,1.88-23.33-5.35-29.5s-14.51-11.19-30-11.19c-10.47,0-17.88,3.11-27.7,6.75-13.8,5.13-23.09,18.26-28.84,31.81s-8.83,28.16-15.08,41.49c-9.86,21-27.93,41.66-22.35,64.21,3.38,13.67,14.93,23.73,26.82,31.26a163.27,163.27,0,0,0,16.16,9h135.6a28.52,28.52,0,0,0,3.5-3c5.75-5.84,8.37-15.53,3.9-22.4,9.22,4.65,25.33-5.89,29.48-15.35C2404.94,1236.15,2405.19,1204.67,2386,1194.74Z" transform="translate(-1717.24 -763.71)"/><path class="cls-3" d="M2291.62,1113.68c7.23,6.17,10.62,21.59,5.35,29.5,19.09,2.37,32.44,10.17,39.16,33.7,1.48,5.16-.57,15.8-.57,15.8s7.2-3.66,17.83-2.58c.51-3.48,1.17-9.65.15-13.22-6.72-23.53-20.08-31.33-39.16-33.7,5.27-7.91,1.88-23.33-5.35-29.5s-14.51-11.19-30-11.19a48.93,48.93,0,0,0-8.26.69C2280.32,1104.76,2286,1108.86,2291.62,1113.68Z" transform="translate(-1717.24 -763.71)"/><path class="cls-3" d="M2386,1194.74c-11.72-6.07-21.91-5.24-27.77-3.84a43.77,43.77,0,0,1,10.36,3.84c19.19,9.93,18.94,41.41,14.51,51.49-4.15,9.46-20.25,20-29.47,15.35,4.46,6.87,1.85,16.56-3.91,22.4a28.52,28.52,0,0,1-3.5,3h17.41a28.52,28.52,0,0,0,3.5-3c5.75-5.84,8.37-15.53,3.9-22.4,9.22,4.65,25.33-5.89,29.48-15.35C2404.94,1236.15,2405.19,1204.67,2386,1194.74Z" transform="translate(-1717.24 -763.71)"/><polygon class="cls-4" points="441.54 62.42 312.25 0 182.95 62.42 210.04 62.42 210.04 182.55 414.45 182.55 414.45 62.42 441.54 62.42"/><rect class="cls-4" x="76.74" y="194.85" width="472.05" height="328.43"/><rect class="cls-4" x="74.44" y="118.39" width="472.05" height="64.38"/><rect class="cls-5" x="262.92" y="269.41" width="99.7" height="253.86"/><polygon class="cls-5" points="210.04 118.39 210.04 83.83 85.34 83.83 64.75 118.39 210.04 118.39"/><polygon class="cls-5" points="414.63 118.39 414.63 83.83 539.33 83.83 559.91 118.39 414.63 118.39"/><polygon class="cls-5" points="182.95 62.42 312.25 0 441.54 62.42 425.82 62.74 312.25 10.52 197.33 62.74 182.95 62.42"/><rect class="cls-6" x="60.38" y="175.73" width="500.17" height="19.76"/><circle class="cls-5" cx="2027.7" cy="832.73" r="27.37" transform="translate(-836.31 1937.15) rotate(-80.78)"/><circle class="cls-7" cx="2027.7" cy="832.73" r="21.47" transform="translate(-836.31 1937.15) rotate(-80.78)"/><path class="cls-8" d="M2012.76,837.75a21.47,21.47,0,0,1,31-19.22,21.47,21.47,0,1,0-25.67,33.41A21.36,21.36,0,0,1,2012.76,837.75Z" transform="translate(-1717.24 -763.71)"/><rect class="cls-9" x="272.16" y="279.69" width="81.86" height="243.59"/><path class="cls-5" d="M2058.92,1145.22h-55.69v-84.14h55.69Zm-51.23-4.46h46.77v-75.22h-46.77Z" transform="translate(-1717.24 -763.71)"/><path class="cls-5" d="M2058.92,1251.13h-55.69V1167h55.69Zm-51.23-4.46h46.77v-75.22h-46.77Z" transform="translate(-1717.24 -763.71)"/><polygon class="cls-10" points="290.46 377.06 296.93 370.58 330.07 370.58 330.07 307.64 337.22 301.83 337.22 377.06 290.46 377.06"/><polygon class="cls-10" points="290.46 482.96 297.27 474.43 330.07 474.43 330.07 415.44 337.22 407.74 337.22 482.96 290.46 482.96"/><rect class="cls-5" x="107.11" y="269.41" width="119.19" height="190.89"/><rect class="cls-7" x="116.48" y="279.69" width="101.11" height="173.25"/><polygon class="cls-8" points="126.98 286.38 217.25 286.38 217.25 279.69 116.14 279.69 116.14 452.94 126.98 452.94 126.98 286.38"/><rect class="cls-5" x="111.79" y="337.33" width="111.37" height="7.14"/><g class="cls-11"><polygon class="cls-12" points="123.18 337.33 166.7 279.69 187.46 279.69 149.29 337.33 123.18 337.33"/></g><g class="cls-11"><path class="cls-12" d="M1923.77,1043.39s-43.18,57.64-41.51,57.64H1903l31.5-46.76v-10.88Z" transform="translate(-1717.24 -763.71)"/></g><g class="cls-11"><polygon class="cls-12" points="169.38 344.47 121.17 452.94 155.31 452.94 201.52 344.47 169.38 344.47"/></g><rect class="cls-5" x="401.39" y="270.87" width="119.19" height="190.89"/><rect class="cls-7" x="410.76" y="281.14" width="101.11" height="173.25"/><polygon class="cls-8" points="421.26 287.83 511.53 287.83 511.53 281.14 410.42 281.14 410.42 454.39 421.26 454.39 421.26 287.83"/><rect class="cls-5" x="406.07" y="338.78" width="111.37" height="7.14"/><g class="cls-11"><polygon class="cls-12" points="417.45 338.78 460.98 281.14 481.74 281.14 443.57 338.78 417.45 338.78"/></g><g class="cls-11"><path class="cls-12" d="M2218.05,1044.85s-43.18,57.64-41.51,57.64h20.73l31.5-46.76v-10.88Z" transform="translate(-1717.24 -763.71)"/></g><g class="cls-11"><polygon class="cls-12" points="463.66 345.92 415.45 454.39 449.6 454.39 495.8 345.92 463.66 345.92"/></g><rect class="cls-6" x="98.9" y="238.41" width="135.59" height="13.06"/><rect class="cls-6" x="393.52" y="241.42" width="135.59" height="13.06"/><polygon class="cls-6" points="167.62 214.95 137.4 244.94 197.83 244.94 167.62 214.95"/><polygon class="cls-6" points="461.76 218.19 431.54 248.17 491.98 248.17 461.76 218.19"/><path class="cls-5" d="M2191.73,914.36a7.62,7.62,0,1,1-7.62-7.62A7.62,7.62,0,0,1,2191.73,914.36Z" transform="translate(-1717.24 -763.71)"/><path class="cls-5" d="M1897.45,913.94a7.62,7.62,0,1,1-7.62-7.61A7.62,7.62,0,0,1,1897.45,913.94Z" transform="translate(-1717.24 -763.71)"/><polygon class="cls-13" points="74.44 194.85 546.49 194.85 546.49 218.19 74.44 201.85 74.44 194.85"/><polygon class="cls-13" points="210.04 62.42 312.25 18.55 414.45 62.42 425.82 62.74 312.25 10.52 197.33 62.74 210.04 62.42"/><polygon class="cls-13" points="210.04 118.39 208.88 128.03 74.44 128.03 74.44 118.39 210.04 118.39"/><rect class="cls-13" x="414.63" y="118.39" width="131.86" height="7.63"/><polygon class="cls-13" points="98.9 251.47 240.35 261.77 240.35 243.7 234.49 238.41 234.49 251.47 98.9 251.47"/><polygon class="cls-13" points="393.52 254.48 534.97 264.79 534.97 246.71 529.11 241.42 529.11 254.48 393.52 254.48"/><path class="cls-14" d="M1845.77,1138c1,3.49,21.38,116.66,21.38,116.66h80.56l-24.49-115.2Z" transform="translate(-1717.24 -763.71)"/><polygon class="cls-9" points="164.98 490.94 169.63 523.28 175.91 523.28 170.88 490.94 164.98 490.94"/><polygon class="cls-9" points="213.23 490.94 221.6 523.28 226.29 523.28 218.09 490.94 213.23 490.94"/><path class="cls-9" d="M1855.64,1191.07c.25,1.37-27.05,95.92-27.05,95.92h6l23.5-82.67Z" transform="translate(-1717.24 -763.71)"/><path class="cls-9" d="M1863.51,1259.67c.34-.51,89.06,0,89.06,0l-.67-5.69h-88.39Z" transform="translate(-1717.24 -763.71)"/><path class="cls-9" d="M1883.93,1138.71c-1.11-1.74-5.35-20-5.35-20h6.13l5.7,20.17Z" transform="translate(-1717.24 -763.71)"/><path class="cls-15" d="M1858.05,1148.24c-1.83,2.25-.33,5.83,2.38,6.56,3.42.93,6.17-2.77,6-5.87a.4.4,0,0,0-.8,0,2.35,2.35,0,0,0,2.87,2.18c2.26-.35,4.11-4.5,6.56-3.28.78.39,1.19,1.29,2,1.64,1,.4,1.62-.3,2.53-.56,2.63-.76,4.86,2.21,7.54,1.62,1.16-.26,3-2,2.06-3.3-.7-1-2,.19-2.39,1a2.5,2.5,0,0,0,1.45,3.37c2.19.93,4.33-.39,6.38-1a14.75,14.75,0,0,1,5-.18,24.39,24.39,0,0,0,4.35-.27,60.13,60.13,0,0,0,9.68-2.51c.48-.16.28-.93-.21-.77-5.07,1.62-10,3-15.4,2.66a9.93,9.93,0,0,0-3.17.18c-1.14.29-2.2.85-3.34,1.18a3.91,3.91,0,0,1-3.45-.31c-1-.77-.83-3,.76-2.78l-.39-.29c.72,1.72-1.44,2.54-2.77,2.27a27.94,27.94,0,0,1-3.49-1.35,4.78,4.78,0,0,0-2.59-.26,9.56,9.56,0,0,0-1.15.47c-1,.33-1.47-.14-2.14-.76a3.1,3.1,0,0,0-4.11-.27c-.88.57-1.55,1.42-2.38,2.06s-3.48,1.29-3.38-.67h-.8c.16,2.51-1.79,5.54-4.61,5.17-2.27-.3-3.93-3.4-2.39-5.29.32-.4-.24-1-.56-.57Z" transform="translate(-1717.24 -763.71)"/><path class="cls-15" d="M1862.54,1162.76a2.52,2.52,0,0,1,2.22-2.13c1.16-.15,1.85.65,2.71,1.28a2.8,2.8,0,0,0,3.3.23c.76-.44,1.33-1.11,2-1.59a2.18,2.18,0,0,1,2.26-.43,7.6,7.6,0,0,1,.85.75,1.59,1.59,0,0,0,1.17.41c.8-.09,1.15-.93,1.89-1.15l-.49-.28a4,4,0,0,0,1.88,2.52c1.27.5,2.11-.48,3.16-1s1.74.18,2.69.35a2.83,2.83,0,0,0,1.6-.2,6.63,6.63,0,0,0,2.77-2.92h-.68a2,2,0,0,0,2.28,1c1.36-.28,3.31-2.82,4.63-1.3.34.39.9-.18.57-.56a2.22,2.22,0,0,0-2.61-.48c-1.07.42-3.25,2.76-4.19,1a.39.39,0,0,0-.68,0,5.77,5.77,0,0,1-2.45,2.6c-1.2.45-2.07-.49-3.24-.45a4,4,0,0,0-1.92.86,1.63,1.63,0,0,1-2.13.06,4.08,4.08,0,0,1-.91-1.64.41.41,0,0,0-.49-.28c-.85.26-1.42,1.39-2.32.9-.68-.37-1-1-1.83-1.11-2.33-.25-3.56,3.06-5.75,2.57-1-.22-1.62-1.18-2.53-1.62a3,3,0,0,0-1.9-.24,3.34,3.34,0,0,0-2.7,2.9c-.07.5.73.5.79,0Z" transform="translate(-1717.24 -763.71)"/><path class="cls-15" d="M1900.34,1158.79h2a.4.4,0,0,0,.4-.4.41.41,0,0,0-.4-.39h-2a.4.4,0,0,0-.4.39.41.41,0,0,0,.4.4Z" transform="translate(-1717.24 -763.71)"/><path class="cls-15" d="M1864.3,1177.55a8.61,8.61,0,0,1,3-1.92c1.46-.44,2.09.24,3.15,1a3,3,0,0,0,3.35.09c1.8-.87,3.08-2,5.21-1.47a7.38,7.38,0,0,0,2.37.45,6.07,6.07,0,0,0,2.28-.82,5,5,0,0,1,1.89-.63c.59,0,1.16.2,1.75.18a3.75,3.75,0,0,0,1.69-.52c.77-.41,1.42-1,2.22-1.38,1.13-.5,2.17-.1,3.33,0,3.7.45,8-2.5,11.4-.24.43.29.83-.4.41-.69-2.47-1.65-5.39-.69-8.06-.15a15.6,15.6,0,0,1-5.28,0c-1.5-.18-2.52.49-3.73,1.28a3.71,3.71,0,0,1-2.36.81,6.71,6.71,0,0,0-2.19,0,12,12,0,0,0-2,.88,4.1,4.1,0,0,1-3.17.15,5,5,0,0,0-3.67.07c-1.2.52-2.38,1.64-3.72,1.73-1.14.09-1.61-.94-2.5-1.43a3.11,3.11,0,0,0-1.82-.32,8,8,0,0,0-4.14,2.29c-.38.34.18.9.57.56Z" transform="translate(-1717.24 -763.71)"/><path class="cls-15" d="M1870.88,1198a.4.4,0,0,0,0-.79.4.4,0,0,0,0,.79Z" transform="translate(-1717.24 -763.71)"/><path class="cls-15" d="M1870.78,1197.57a6.06,6.06,0,0,0,8.5,2.83,6.13,6.13,0,0,0,1.76-1.53c.58-.74.87-1.89,1.62-2.49,1.17-.94,1.94.46,2.49,1.32a4.55,4.55,0,0,0,7.38.78,2.59,2.59,0,0,1,2-1c.58,0,1.16.06,1.74.1a58.26,58.26,0,0,0,7.34.41,5.55,5.55,0,0,0,2.43-.63,7.08,7.08,0,0,0,.83-.61c1-.81,2-.5,3.07,0a15.07,15.07,0,0,0,13.14,0c.46-.23.06-.91-.4-.69a14,14,0,0,1-6.58,1.45,15.91,15.91,0,0,1-6.36-1.72,3.24,3.24,0,0,0-2-.4c-.87.16-1.37.88-2.11,1.29-1.95,1.09-4.83.42-6.93.28-1.14-.08-2.28-.17-3.42-.23a4.24,4.24,0,0,0-2.23.28c-.73.39-1.13,1.16-1.83,1.6a3.88,3.88,0,0,1-2.88.48c-2-.44-2.24-2.17-3.59-3.34a1.89,1.89,0,0,0-2.72.17,15.79,15.79,0,0,0-1.39,2.21,5.44,5.44,0,0,1-3,2.09,5.28,5.28,0,0,1-6.16-3.06c-.22-.46-.9-.06-.69.4Z" transform="translate(-1717.24 -763.71)"/><path class="cls-15" d="M1877.94,1214c-.27.31-.53.62-.8.92a.4.4,0,0,0,.48.63c6.36-2.84,14.28-3.59,20.45.15a5.89,5.89,0,0,1,3,4.44c.35,2.08.63,4.17,1,6.26q.93,6.11,1.85,12.21l.73-.31c-.09-.14-.17-.29-.25-.43a.4.4,0,0,0-.69.4c.08.15.17.29.25.43.24.41.79.12.73-.31q-1.08-7.08-2.15-14.15c-.31-2-.36-4.38-1.17-6.29a7,7,0,0,0-3.21-3.14c-6.42-3.65-14.39-2.86-20.91,0l.49.63.79-.93c.33-.38-.23-1-.56-.56Z" transform="translate(-1717.24 -763.71)"/><path class="cls-15" d="M1876.85,1216.09q2,10,3.21,20.23c0,.26.32.54.6.34a17.1,17.1,0,0,1,12.13-3.18,25,25,0,0,1,6.22,1.71c1.1.44,2.17.94,3.23,1.45l1.43.71.82.41a2.21,2.21,0,0,0,1,.34c-.31-.4-1,0-.69.4a.65.65,0,0,0,1.1,0c.36-.54-.18-1-.59-1.24a37.6,37.6,0,0,0-8.62-3.77,18.45,18.45,0,0,0-16.42,2.46l.6.35q-1.23-10.29-3.24-20.45c-.09-.5-.86-.29-.76.22Z" transform="translate(-1717.24 -763.71)"/><path class="cls-15" d="M1905.76,1238.86a13.26,13.26,0,0,1,6.92-6.69c2.66-1.26,8.18-3.45,10,.11.23.46.92.06.69-.4-1.95-3.83-7.37-2-10.36-.72-3.47,1.49-6.57,3.92-8,7.49-.2.47.57.68.76.21Z" transform="translate(-1717.24 -763.71)"/><path class="cls-15" d="M1902.26,1216.23a22.46,22.46,0,0,1,15.82-5.91c.52,0,.52-.78,0-.8a23.33,23.33,0,0,0-16.38,6.14c-.38.35.19.91.56.57Z" transform="translate(-1717.24 -763.71)"/><path class="cls-15" d="M1918.75,1210.68a.4.4,0,0,0,0-.79.4.4,0,0,0,0,.79Z" transform="translate(-1717.24 -763.71)"/><path class="cls-15" d="M1918.43,1210.37a169.1,169.1,0,0,1,5.28,20.78c.1.5.86.29.77-.21a170.92,170.92,0,0,0-5.28-20.78c-.16-.49-.93-.28-.77.21Z" transform="translate(-1717.24 -763.71)"/><path class="cls-15" d="M1880.32,1239.58a21.8,21.8,0,0,1,23.63-1.39l.31-.73-.8-.14c-.51-.09-.72.68-.22.77l.8.14a.4.4,0,0,0,.31-.73,22.6,22.6,0,0,0-24.44,1.39c-.4.31,0,1,.41.69Z" transform="translate(-1717.24 -763.71)"/><path class="cls-15" d="M1882.6,1242.15a.4.4,0,0,0,0-.79.4.4,0,0,0,0,.79Z" transform="translate(-1717.24 -763.71)"/><path class="cls-15" d="M1882.73,1242c6.71-3.35,15-6.31,22-2.07.38.23.83-.32.48-.63l-.94-.82c-.38-.34-1,.23-.56.56l.94.83.48-.63c-7.29-4.39-15.86-1.41-22.83,2.07-.46.23-.06.92.4.69Z" transform="translate(-1717.24 -763.71)"/><path class="cls-15" d="M1906.23,1239.67c2.65-2.46,5.57-4.88,9.08-6a10.48,10.48,0,0,1,9.5,1.3c.4.31.8-.38.4-.69a11.2,11.2,0,0,0-9.83-1.46c-3.77,1.08-6.89,3.65-9.71,6.27-.38.35.19.91.56.56Z" transform="translate(-1717.24 -763.71)"/><path class="cls-15" d="M1907.91,1240.11a22.45,22.45,0,0,1,19.72-1l.09-.73-1,.27a.4.4,0,0,0,.21.77l1-.27a.4.4,0,0,0,.1-.73,23.29,23.29,0,0,0-20.52,1,.4.4,0,0,0,.4.69Z" transform="translate(-1717.24 -763.71)"/></svg>